  0
SECTION
  2
HEADER
  9
$ACADVER
  1
AC1018
  9
$ACADMAINTVER
 70
    77
  9
$DWGCODEPAGE
  3
ANSI_1252
  9
$INSBASE
 10
0.0
 20
0.0
 30
0.0
  9
$EXTMIN
 10
16.53869416972426
 20
7.464444357393182
 30
0.0
  9
$EXTMAX
 10
47.97563293472963
 20
23.52638024137728
 30
0.0
  9
$LIMMIN
 10
0.0
 20
0.0
  9
$LIMMAX
 10
12.0
 20
9.0
  9
$ORTHOMODE
 70
     1
  9
$REGENMODE
 70
     1
  9
$FILLMODE
 70
     1
  9
$QTEXTMODE
 70
     0
  9
$MIRRTEXT
 70
     0
  9
$LTSCALE
 40
1.0
  9
$ATTMODE
 70
     1
  9
$TEXTSIZE
 40
0.2
  9
$TRACEWID
 40
0.05
  9
$TEXTSTYLE
  7
Standard
  9
$CLAYER
  8
0
  9
$CELTYPE
  6
ByLayer
  9
$CECOLOR
 62
   256
  9
$CELTSCALE
 40
1.0
  9
$DISPSILH
 70
     0
  9
$DIMSCALE
 40
1.0
  9
$DIMASZ
 40
0.18
  9
$DIMEXO
 40
0.0625
  9
$DIMDLI
 40
0.38
  9
$DIMRND
 40
0.0
  9
$DIMDLE
 40
0.0
  9
$DIMEXE
 40
0.18
  9
$DIMTP
 40
0.0
  9
$DIMTM
 40
0.0
  9
$DIMTXT
 40
0.18
  9
$DIMCEN
 40
0.09
  9
$DIMTSZ
 40
0.0
  9
$DIMTOL
 70
     0
  9
$DIMLIM
 70
     0
  9
$DIMTIH
 70
     1
  9
$DIMTOH
 70
     1
  9
$DIMSE1
 70
     0
  9
$DIMSE2
 70
     0
  9
$DIMTAD
 70
     0
  9
$DIMZIN
 70
     0
  9
$DIMBLK
  1

  9
$DIMASO
 70
     1
  9
$DIMSHO
 70
     1
  9
$DIMPOST
  1

  9
$DIMAPOST
  1

  9
$DIMALT
 70
     0
  9
$DIMALTD
 70
     2
  9
$DIMALTF
 40
25.4
  9
$DIMLFAC
 40
1.0
  9
$DIMTOFL
 70
     0
  9
$DIMTVP
 40
0.0
  9
$DIMTIX
 70
     0
  9
$DIMSOXD
 70
     0
  9
$DIMSAH
 70
     0
  9
$DIMBLK1
  1

  9
$DIMBLK2
  1

  9
$DIMSTYLE
  2
Standard
  9
$DIMCLRD
 70
     0
  9
$DIMCLRE
 70
     0
  9
$DIMCLRT
 70
     0
  9
$DIMTFAC
 40
1.0
  9
$DIMGAP
 40
0.09
  9
$DIMJUST
 70
     0
  9
$DIMSD1
 70
     0
  9
$DIMSD2
 70
     0
  9
$DIMTOLJ
 70
     1
  9
$DIMTZIN
 70
     0
  9
$DIMALTZ
 70
     0
  9
$DIMALTTZ
 70
     0
  9
$DIMUPT
 70
     0
  9
$DIMDEC
 70
     4
  9
$DIMTDEC
 70
     4
  9
$DIMALTU
 70
     2
  9
$DIMALTTD
 70
     2
  9
$DIMTXSTY
  7
Standard
  9
$DIMAUNIT
 70
     0
  9
$DIMADEC
 70
     0
  9
$DIMALTRND
 40
0.0
  9
$DIMAZIN
 70
     0
  9
$DIMDSEP
 70
    46
  9
$DIMATFIT
 70
     3
  9
$DIMFRAC
 70
     0
  9
$DIMLDRBLK
  1

  9
$DIMLUNIT
 70
     2
  9
$DIMLWD
 70
    -2
  9
$DIMLWE
 70
    -2
  9
$DIMTMOVE
 70
     0
  9
$LUNITS
 70
     2
  9
$LUPREC
 70
     4
  9
$SKETCHINC
 40
0.1
  9
$FILLETRAD
 40
0.0
  9
$AUNITS
 70
     0
  9
$AUPREC
 70
     0
  9
$MENU
  1
.
  9
$ELEVATION
 40
0.0
  9
$PELEVATION
 40
0.0
  9
$THICKNESS
 40
0.0
  9
$LIMCHECK
 70
     0
  9
$CHAMFERA
 40
0.0
  9
$CHAMFERB
 40
0.0
  9
$CHAMFERC
 40
0.0
  9
$CHAMFERD
 40
0.0
  9
$SKPOLY
 70
     0
  9
$TDCREATE
 40
2454218.475506181
  9
$TDUCREATE
 40
2454218.683839514
  9
$TDUPDATE
 40
2454218.502733461
  9
$TDUUPDATE
 40
2454218.711066794
  9
$TDINDWG
 40
0.0272287384
  9
$TDUSRTIMER
 40
0.0272281944
  9
$USRTIMER
 70
     1
  9
$ANGBASE
 50
0.0
  9
$ANGDIR
 70
     0
  9
$PDMODE
 70
     0
  9
$PDSIZE
 40
0.0
  9
$PLINEWID
 40
0.0
  9
$SPLFRAME
 70
     0
  9
$SPLINETYPE
 70
     6
  9
$SPLINESEGS
 70
     8
  9
$HANDSEED
  5
444
  9
$SURFTAB1
 70
     6
  9
$SURFTAB2
 70
     6
  9
$SURFTYPE
 70
     6
  9
$SURFU
 70
     6
  9
$SURFV
 70
     6
  9
$UCSBASE
  2

  9
$UCSNAME
  2

  9
$UCSORG
 10
0.0
 20
0.0
 30
0.0
  9
$UCSXDIR
 10
1.0
 20
0.0
 30
0.0
  9
$UCSYDIR
 10
0.0
 20
1.0
 30
0.0
  9
$UCSORTHOREF
  2

  9
$UCSORTHOVIEW
 70
     0
  9
$UCSORGTOP
 10
0.0
 20
0.0
 30
0.0
  9
$UCSORGBOTTOM
 10
0.0
 20
0.0
 30
0.0
  9
$UCSORGLEFT
 10
0.0
 20
0.0
 30
0.0
  9
$UCSORGRIGHT
 10
0.0
 20
0.0
 30
0.0
  9
$UCSORGFRONT
 10
0.0
 20
0.0
 30
0.0
  9
$UCSORGBACK
 10
0.0
 20
0.0
 30
0.0
  9
$PUCSBASE
  2

  9
$PUCSNAME
  2

  9
$PUCSORG
 10
0.0
 20
0.0
 30
0.0
  9
$PUCSXDIR
 10
1.0
 20
0.0
 30
0.0
  9
$PUCSYDIR
 10
0.0
 20
1.0
 30
0.0
  9
$PUCSORTHOREF
  2

  9
$PUCSORTHOVIEW
 70
     0
  9
$PUCSORGTOP
 10
0.0
 20
0.0
 30
0.0
  9
$PUCSORGBOTTOM
 10
0.0
 20
0.0
 30
0.0
  9
$PUCSORGLEFT
 10
0.0
 20
0.0
 30
0.0
  9
$PUCSORGRIGHT
 10
0.0
 20
0.0
 30
0.0
  9
$PUCSORGFRONT
 10
0.0
 20
0.0
 30
0.0
  9
$PUCSORGBACK
 10
0.0
 20
0.0
 30
0.0
  9
$USERI1
 70
     0
  9
$USERI2
 70
     0
  9
$USERI3
 70
     0
  9
$USERI4
 70
     0
  9
$USERI5
 70
     0
  9
$USERR1
 40
0.0
  9
$USERR2
 40
0.0
  9
$USERR3
 40
0.0
  9
$USERR4
 40
0.0
  9
$USERR5
 40
0.0
  9
$WORLDVIEW
 70
     1
  9
$SHADEDGE
 70
     3
  9
$SHADEDIF
 70
    70
  9
$TILEMODE
 70
     1
  9
$MAXACTVP
 70
    64
  9
$PINSBASE
 10
0.0
 20
0.0
 30
0.0
  9
$PLIMCHECK
 70
     0
  9
$PEXTMIN
 10
0.0
 20
0.0
 30
0.0
  9
$PEXTMAX
 10
0.0
 20
0.0
 30
0.0
  9
$PLIMMIN
 10
0.0
 20
0.0
  9
$PLIMMAX
 10
12.0
 20
9.0
  9
$UNITMODE
 70
     0
  9
$VISRETAIN
 70
     1
  9
$PLINEGEN
 70
     0
  9
$PSLTSCALE
 70
     1
  9
$TREEDEPTH
 70
  3020
  9
$CMLSTYLE
  2
Standard
  9
$CMLJUST
 70
     0
  9
$CMLSCALE
 40
1.0
  9
$PROXYGRAPHICS
 70
     1
  9
$MEASUREMENT
 70
     0
  9
$CELWEIGHT
370
    -1
  9
$ENDCAPS
280
     0
  9
$JOINSTYLE
280
     0
  9
$LWDISPLAY
290
     1
  9
$INSUNITS
 70
     1
  9
$HYPERLINKBASE
  1

  9
$STYLESHEET
  1

  9
$XEDIT
290
     1
  9
$CEPSNTYPE
380
     0
  9
$PSTYLEMODE
290
     1
  9
$FINGERPRINTGUID
  2
{E4E52051-AF16-460C-ACAE-04B2AFA1A8C2}
  9
$VERSIONGUID
  2
{479E16B9-A49D-4E12-8360-246165D4BB5E}
  9
$EXTNAMES
290
     1
  9
$PSVPSCALE
 40
0.0
  9
$OLESTARTUP
290
     0
  9
$SORTENTS
280
   127
  9
$INDEXCTL
280
     0
  9
$HIDETEXT
280
     1
  9
$XCLIPFRAME
290
     0
  9
$HALOGAP
280
     0
  9
$OBSCOLOR
 70
   257
  9
$OBSLTYPE
280
     0
  9
$INTERSECTIONDISPLAY
280
     0
  9
$INTERSECTIONCOLOR
 70
   257
  9
$DIMASSOC
280
     2
  9
$PROJECTNAME
  1

  0
ENDSEC
  0
SECTION
  2
CLASSES
  0
CLASS
  1
ACDBDICTIONARYWDFLT
  2
AcDbDictionaryWithDefault
  3
ObjectDBX Classes
 90
        0
 91
        1
280
     0
281
     0
  0
CLASS
  1
DICTIONARYVAR
  2
AcDbDictionaryVar
  3
ObjectDBX Classes
 90
        0
 91
        3
280
     0
281
     0
  0
CLASS
  1
TABLESTYLE
  2
AcDbTableStyle
  3
ObjectDBX Classes
 90
     2047
 91
        2
280
     0
281
     0
  0
CLASS
  1
DMMAPMANAGER
  2
AcMapDMMapManager
  3
AcMapDisplayManagement
 90
     1024
 91
        1
280
     0
281
     0
  0
CLASS
  1
DMSTYLELIBRARY
  2
AcMapDMStyleLibrary
  3
AcMapDisplayManagement
 90
     1024
 91
        1
280
     0
281
     0
  0
CLASS
  1
DMSTYLECATEGORY
  2
AcMapDMStyleCategory
  3
AcMapDisplayManagement
 90
     1024
 91
        1
280
     0
281
     0
  0
CLASS
  1
DATATABLE
  2
AcDbDataTable
  3
ObjectDBX Classes
 90
        0
 91
        1
280
     0
281
     0
  0
CLASS
  1
DMMAP
  2
AcMapDMMap
  3
AcMapDisplayManagement
 90
     1024
 91
        1
280
     0
281
     0
  0
CLASS
  1
DMBASEELEMENT
  2
AcMapDMBaseElement
  3
AcMapDisplayManagement
 90
     1024
 91
        1
280
     0
281
     0
  0
CLASS
  1
DMDEFAULTSTYLE
  2
AcMapDMDefaultStyle
  3
AcMapDisplayManagement
 90
     1024
 91
        1
280
     0
281
     0
  0
CLASS
  1
DMSTYLEREFERENCE
  2
AcMapDMStyleReference
  3
AcMapDisplayManagement
 90
     1024
 91
        1
280
     0
281
     0
  0
CLASS
  1
DMSURROGATESTYLESETS
  2
AcMapDMSurrogateStyleSets
  3
AcMapDisplayManagement
 90
     1153
 91
        1
280
     0
281
     0
  0
CLASS
  1
DMSTYLIZEDENTITIESTABLE
  2
AcMapDMStylizedEntitiesTable
  3
AcMapDisplayManagement
 90
     1024
 91
        1
280
     0
281
     0
  0
CLASS
  1
AEC_VARS_DWG_SETUP
  2
AecDbVarsDwgSetup
  3
AecBase40|Product Desc: Autodesk Architectural Desktop 2005 |Company: Autodesk,Inc. |WEB Address: www.autodesk.com
 90
      129
 91
        1
280
     0
281
     0
  0
CLASS
  1
SORTENTSTABLE
  2
AcDbSortentsTable
  3
ObjectDBX Classes
 90
        0
 91
        1
280
     0
281
     0
  0
ENDSEC
  0
SECTION
  2
TABLES
  0
TABLE
  2
VPORT
  5
8
330
0
100
AcDbSymbolTable
 70
     6
  0
VPORT
  5
443
330
8
100
AcDbSymbolTableRecord
100
AcDbViewportTableRecord
  2
*Active
 70
     0
 10
0.0
 20
0.0
 11
1.0
 21
1.0
 12
37.83624650579305
 22
13.77528715843223
 13
0.0
 23
0.0
 14
0.5
 24
0.5
 15
0.5
 25
0.5
 16
0.0
 26
0.0
 36
1.0
 17
0.0
 27
0.0
 37
0.0
 40
12.54789752268424
 41
1.222950819672131
 42
50.0
 43
0.0
 44
0.0
 50
0.0
 51
0.0
 71
     0
 72
  1000
 73
     1
 74
     3
 75
     0
 76
     0
 77
     0
 78
     0
281
     0
 65
     1
110
0.0
120
0.0
130
0.0
111
1.0
121
0.0
131
0.0
112
0.0
122
1.0
132
0.0
 79
     0
146
0.0
  0
ENDTAB
  0
TABLE
  2
LTYPE
  5
5
330
0
100
AcDbSymbolTable
 70
     2
  0
LTYPE
  5
14
330
5
100
AcDbSymbolTableRecord
100
AcDbLinetypeTableRecord
  2
ByBlock
 70
     0
  3

 72
    65
 73
     0
 40
0.0
  0
LTYPE
  5
15
330
5
100
AcDbSymbolTableRecord
100
AcDbLinetypeTableRecord
  2
ByLayer
 70
     0
  3

 72
    65
 73
     0
 40
0.0
  0
LTYPE
  5
16
330
5
100
AcDbSymbolTableRecord
100
AcDbLinetypeTableRecord
  2
Continuous
 70
     0
  3
Solid line
 72
    65
 73
     0
 40
0.0
  0
ENDTAB
  0
TABLE
  2
LAYER
  5
2
330
0
100
AcDbSymbolTable
 70
     1
  0
LAYER
  5
10
330
2
100
AcDbSymbolTableRecord
100
AcDbLayerTableRecord
  2
0
 70
     0
 62
     7
  6
Continuous
370
    -3
390
F
  0
ENDTAB
  0
TABLE
  2
STYLE
  5
3
330
0
100
AcDbSymbolTable
 70
     1
  0
STYLE
  5
11
330
3
100
AcDbSymbolTableRecord
100
AcDbTextStyleTableRecord
  2
Standard
 70
     0
 40
0.0
 41
1.0
 50
0.0
 71
     0
 42
0.2
  3
txt
  4

  0
ENDTAB
  0
TABLE
  2
VIEW
  5
6
330
0
100
AcDbSymbolTable
 70
     0
  0
ENDTAB
  0
TABLE
  2
UCS
  5
7
330
0
100
AcDbSymbolTable
 70
     0
  0
ENDTAB
  0
TABLE
  2
APPID
  5
9
330
0
100
AcDbSymbolTable
 70
     5
  0
APPID
  5
12
330
9
100
AcDbSymbolTableRecord
100
AcDbRegAppTableRecord
  2
ACAD
 70
     0
  0
APPID
  5
94
330
9
100
AcDbSymbolTableRecord
100
AcDbRegAppTableRecord
  2
AcMapDMDisplayStyleRegapp
 70
     0
  0
APPID
  5
F4
330
9
100
AcDbSymbolTableRecord
100
AcDbRegAppTableRecord
  2
DCO15
 70
     0
  0
APPID
  5
F6
330
9
100
AcDbSymbolTableRecord
100
AcDbRegAppTableRecord
  2
ADE
 70
     0
  0
APPID
  5
115
330
9
100
AcDbSymbolTableRecord
100
AcDbRegAppTableRecord
  2
ACAD_EXEMPT_FROM_CAD_STANDARDS
 70
     0
  0
ENDTAB
  0
TABLE
  2
DIMSTYLE
  5
A
330
0
100
AcDbSymbolTable
 70
     2
100
AcDbDimStyleTable
 71
     1
340
27
  0
DIMSTYLE
105
27
330
A
100
AcDbSymbolTableRecord
100
AcDbDimStyleTableRecord
  2
Standard
 70
     0
340
11
  0
ENDTAB
  0
TABLE
  2
BLOCK_RECORD
  5
1
330
0
100
AcDbSymbolTable
 70
     2
  0
BLOCK_RECORD
  5
1F
102
{ACAD_XDICTIONARY
360
A0
102
}
330
1
100
AcDbSymbolTableRecord
100
AcDbBlockTableRecord
  2
*Model_Space
340
22
  0
BLOCK_RECORD
  5
58
330
1
100
AcDbSymbolTableRecord
100
AcDbBlockTableRecord
  2
*Paper_Space
340
59
  0
BLOCK_RECORD
  5
5D
330
1
100
AcDbSymbolTableRecord
100
AcDbBlockTableRecord
  2
*Paper_Space0
340
5E
  0
ENDTAB
  0
ENDSEC
  0
SECTION
  2
BLOCKS
  0
BLOCK
  5
20
330
1F
100
AcDbEntity
  8
0
100
AcDbBlockBegin
  2
*Model_Space
 70
     0
 10
0.0
 20
0.0
 30
0.0
  3
*Model_Space
  1

  0
ENDBLK
  5
21
330
1F
100
AcDbEntity
  8
0
100
AcDbBlockEnd
  0
BLOCK
  5
5A
330
58
100
AcDbEntity
 67
     1
  8
0
100
AcDbBlockBegin
  2
*Paper_Space
 70
     0
 10
0.0
 20
0.0
 30
0.0
  3
*Paper_Space
  1

  0
ENDBLK
  5
5B
330
58
100
AcDbEntity
 67
     1
  8
0
100
AcDbBlockEnd
  0
BLOCK
  5
5F
330
5D
100
AcDbEntity
 67
     1
  8
0
100
AcDbBlockBegin
  2
*Paper_Space0
 70
     0
 10
0.0
 20
0.0
 30
0.0
  3
*Paper_Space0
  1

  0
ENDBLK
  5
60
330
5D
100
AcDbEntity
 67
     1
  8
0
100
AcDbBlockEnd
  0
ENDSEC
  0
SECTION
  2
ENTITIES
  0
LINE
  5
AA
330
1F
100
AcDbEntity
  8
0
100
AcDbLine
 10
35.03869416972427
 20
13.81105963266329
 30
0.0
 11
35.03869416972428
 21
10.32638024137727
 31
0.0
  0
LINE
  5
AC
330
1F
100
AcDbEntity
  8
0
100
AcDbLine
 10
35.63869416972428
 20
10.32638024137727
 30
0.0
 11
35.03869416972428
 21
10.32638024137727
 31
0.0
  0
LINE
  5
FC
330
1F
100
AcDbEntity
  8
0
100
AcDbLine
 10
35.03869416972428
 20
10.62638024137727
 30
0.0
 11
34.43869416972427
 21
10.62638024137727
 31
0.0
  0
LINE
  5
FD
330
1F
100
AcDbEntity
  8
0
100
AcDbLine
 10
34.43869416972427
 20
10.62638024137727
 30
0.0
 11
34.43869416972427
 21
10.32638024137727
 31
0.0
  0
LINE
  5
FE
330
1F
100
AcDbEntity
  8
0
100
AcDbLine
 10
34.43869416972427
 20
10.62638024137727
 30
0.0
 11
33.83869416972427
 21
10.62638024137727
 31
0.0
  0
LINE
  5
FF
330
1F
100
AcDbEntity
  8
0
100
AcDbLine
 10
33.83869416972427
 20
10.62638024137727
 30
0.0
 11
33.83869416972427
 21
10.32638024137727
 31
0.0
  0
LINE
  5
100
330
1F
100
AcDbEntity
  8
0
100
AcDbLine
 10
33.83869416972427
 20
10.62638024137727
 30
0.0
 11
33.23869416972427
 21
10.62638024137727
 31
0.0
  0
LINE
  5
101
330
1F
100
AcDbEntity
  8
0
100
AcDbLine
 10
33.23869416972427
 20
10.62638024137727
 30
0.0
 11
33.23869416972427
 21
10.32638024137727
 31
0.0
  0
LINE
  5
10C
330
1F
100
AcDbEntity
  8
0
100
AcDbLine
 10
35.03869416972428
 20
10.32638024137727
 30
0.0
 11
34.43869416972427
 21
10.32638024137727
 31
0.0
  0
LINE
  5
10D
330
1F
100
AcDbEntity
  8
0
100
AcDbLine
 10
34.43869416972427
 20
10.32638024137727
 30
0.0
 11
33.83869416972427
 21
10.32638024137727
 31
0.0
  0
LINE
  5
10E
330
1F
100
AcDbEntity
  8
0
100
AcDbLine
 10
33.83869416972427
 20
10.32638024137727
 30
0.0
 11
33.23869416972427
 21
10.32638024137727
 31
0.0
  0
LINE
  5
11B
330
1F
100
AcDbEntity
  8
0
100
AcDbLine
 10
34.13869416972428
 20
10.92638024137727
 30
0.0
 11
34.13869416972428
 21
10.62638024137727
 31
0.0
  0
LINE
  5
11C
330
1F
100
AcDbEntity
  8
0
100
AcDbLine
 10
34.13869416972428
 20
10.92638024137727
 30
0.0
 11
33.53869416972428
 21
10.92638024137727
 31
0.0
  0
LINE
  5
11D
330
1F
100
AcDbEntity
  8
0
100
AcDbLine
 10
33.53869416972428
 20
10.92638024137727
 30
0.0
 11
33.53869416972428
 21
10.62638024137727
 31
0.0
  0
LINE
  5
11E
330
1F
100
AcDbEntity
  8
0
100
AcDbLine
 10
33.53869416972428
 20
10.92638024137727
 30
0.0
 11
32.93869416972427
 21
10.92638024137727
 31
0.0
  0
LINE
  5
11F
330
1F
100
AcDbEntity
  8
0
100
AcDbLine
 10
32.93869416972427
 20
10.92638024137727
 30
0.0
 11
32.93869416972427
 21
10.62638024137727
 31
0.0
  0
LINE
  5
128
330
1F
100
AcDbEntity
  8
0
100
AcDbLine
 10
34.13869416972428
 20
10.62638024137727
 30
0.0
 11
33.53869416972428
 21
10.62638024137727
 31
0.0
  0
LINE
  5
129
330
1F
100
AcDbEntity
  8
0
100
AcDbLine
 10
33.53869416972428
 20
10.62638024137727
 30
0.0
 11
32.93869416972427
 21
10.62638024137727
 31
0.0
  0
LINE
  5
12E
330
1F
100
AcDbEntity
  8
0
100
AcDbLine
 10
34.73869416972428
 20
10.92638024137727
 30
0.0
 11
34.73869416972428
 21
10.62638024137727
 31
0.0
  0
LINE
  5
12F
330
1F
100
AcDbEntity
  8
0
100
AcDbLine
 10
34.73869416972428
 20
10.92638024137727
 30
0.0
 11
34.13869416972428
 21
10.92638024137727
 31
0.0
  0
LINE
  5
131
330
1F
100
AcDbEntity
  8
0
100
AcDbLine
 10
35.03869416972428
 20
10.92638024137727
 30
0.0
 11
34.73869416972428
 21
10.92638024137727
 31
0.0
  0
LINE
  5
146
330
1F
100
AcDbEntity
  8
0
100
AcDbLine
 10
35.63869416972427
 20
13.81105963266329
 30
0.0
 11
35.63869416972428
 21
10.32638024137727
 31
0.0
  0
LINE
  5
148
330
1F
100
AcDbEntity
  8
0
100
AcDbLine
 10
35.63869416972428
 20
10.82638024137727
 30
0.0
 11
35.03869416972428
 21
10.82638024137727
 31
0.0
  0
LINE
  5
149
330
1F
100
AcDbEntity
  8
0
100
AcDbLine
 10
35.63869416972428
 20
11.32638024137727
 30
0.0
 11
35.03869416972428
 21
11.32638024137727
 31
0.0
  0
LINE
  5
14A
330
1F
100
AcDbEntity
  8
0
100
AcDbLine
 10
35.63869416972428
 20
11.82638024137727
 30
0.0
 11
35.03869416972427
 21
11.82638024137727
 31
0.0
  0
LINE
  5
14B
330
1F
100
AcDbEntity
  8
0
100
AcDbLine
 10
35.63869416972428
 20
12.32638024137727
 30
0.0
 11
35.03869416972427
 21
12.32638024137727
 31
0.0
  0
LINE
  5
14C
330
1F
100
AcDbEntity
  8
0
100
AcDbLine
 10
35.63869416972427
 20
12.82638024137727
 30
0.0
 11
35.03869416972426
 21
12.82638024137727
 31
0.0
  0
LINE
  5
14D
330
1F
100
AcDbEntity
  8
0
100
AcDbLine
 10
35.63869416972427
 20
13.32638024137727
 30
0.0
 11
35.03869416972426
 21
13.32638024137727
 31
0.0
  0
LINE
  5
14E
330
1F
100
AcDbEntity
  8
0
100
AcDbLine
 10
35.63875005643254
 20
13.82638024137727
 30
0.0
 11
35.03869416972426
 21
13.82638024137727
 31
0.0
  0
LINE
  5
163
330
1F
100
AcDbEntity
  8
0
100
AcDbLine
 10
35.03869416972428
 20
11.22638024137727
 30
0.0
 11
34.43869416972428
 21
11.22638024137727
 31
0.0
  0
LINE
  5
164
330
1F
100
AcDbEntity
  8
0
100
AcDbLine
 10
34.43869416972428
 20
11.22638024137727
 30
0.0
 11
34.43869416972428
 21
10.92638024137727
 31
0.0
  0
LINE
  5
165
330
1F
100
AcDbEntity
  8
0
100
AcDbLine
 10
34.43869416972428
 20
11.22638024137727
 30
0.0
 11
33.83869416972428
 21
11.22638024137727
 31
0.0
  0
LINE
  5
166
330
1F
100
AcDbEntity
  8
0
100
AcDbLine
 10
33.83869416972428
 20
11.22638024137727
 30
0.0
 11
33.83869416972428
 21
10.92638024137727
 31
0.0
  0
LINE
  5
167
330
1F
100
AcDbEntity
  8
0
100
AcDbLine
 10
33.83869416972428
 20
11.22638024137727
 30
0.0
 11
33.23869416972428
 21
11.22638024137727
 31
0.0
  0
LINE
  5
168
330
1F
100
AcDbEntity
  8
0
100
AcDbLine
 10
33.23869416972428
 20
11.22638024137727
 30
0.0
 11
33.23869416972428
 21
10.92638024137727
 31
0.0
  0
LINE
  5
169
330
1F
100
AcDbEntity
  8
0
100
AcDbLine
 10
34.13869416972428
 20
11.52638024137727
 30
0.0
 11
34.13869416972428
 21
11.22638024137727
 31
0.0
  0
LINE
  5
16A
330
1F
100
AcDbEntity
  8
0
100
AcDbLine
 10
34.13869416972428
 20
11.52638024137727
 30
0.0
 11
33.53869416972428
 21
11.52638024137727
 31
0.0
  0
LINE
  5
16B
330
1F
100
AcDbEntity
  8
0
100
AcDbLine
 10
33.53869416972428
 20
11.52638024137727
 30
0.0
 11
33.53869416972428
 21
11.22638024137727
 31
0.0
  0
LINE
  5
16C
330
1F
100
AcDbEntity
  8
0
100
AcDbLine
 10
33.53869416972428
 20
11.52638024137727
 30
0.0
 11
32.93869416972428
 21
11.52638024137727
 31
0.0
  0
LINE
  5
16D
330
1F
100
AcDbEntity
  8
0
100
AcDbLine
 10
32.93869416972428
 20
11.52638024137727
 30
0.0
 11
32.93869416972428
 21
11.22638024137727
 31
0.0
  0
LINE
  5
16E
330
1F
100
AcDbEntity
  8
0
100
AcDbLine
 10
34.13869416972428
 20
11.22638024137727
 30
0.0
 11
33.53869416972428
 21
11.22638024137727
 31
0.0
  0
LINE
  5
16F
330
1F
100
AcDbEntity
  8
0
100
AcDbLine
 10
33.53869416972428
 20
11.22638024137727
 30
0.0
 11
32.93869416972428
 21
11.22638024137727
 31
0.0
  0
LINE
  5
170
330
1F
100
AcDbEntity
  8
0
100
AcDbLine
 10
34.73869416972429
 20
11.52638024137727
 30
0.0
 11
34.73869416972429
 21
11.22638024137727
 31
0.0
  0
LINE
  5
171
330
1F
100
AcDbEntity
  8
0
100
AcDbLine
 10
34.73869416972429
 20
11.52638024137727
 30
0.0
 11
34.13869416972428
 21
11.52638024137727
 31
0.0
  0
LINE
  5
172
330
1F
100
AcDbEntity
  8
0
100
AcDbLine
 10
35.03869416972429
 20
11.52638024137727
 30
0.0
 11
34.73869416972429
 21
11.52638024137727
 31
0.0
  0
LINE
  5
173
330
1F
100
AcDbEntity
  8
0
100
AcDbLine
 10
35.03869416972429
 20
11.82638024137727
 30
0.0
 11
34.43869416972429
 21
11.82638024137727
 31
0.0
  0
LINE
  5
174
330
1F
100
AcDbEntity
  8
0
100
AcDbLine
 10
34.43869416972429
 20
11.82638024137727
 30
0.0
 11
34.43869416972429
 21
11.52638024137727
 31
0.0
  0
LINE
  5
175
330
1F
100
AcDbEntity
  8
0
100
AcDbLine
 10
34.43869416972429
 20
11.82638024137727
 30
0.0
 11
33.83869416972429
 21
11.82638024137727
 31
0.0
  0
LINE
  5
176
330
1F
100
AcDbEntity
  8
0
100
AcDbLine
 10
33.83869416972429
 20
11.82638024137727
 30
0.0
 11
33.83869416972429
 21
11.52638024137727
 31
0.0
  0
LINE
  5
177
330
1F
100
AcDbEntity
  8
0
100
AcDbLine
 10
33.83869416972429
 20
11.82638024137727
 30
0.0
 11
33.23869416972428
 21
11.82638024137727
 31
0.0
  0
LINE
  5
178
330
1F
100
AcDbEntity
  8
0
100
AcDbLine
 10
33.23869416972428
 20
11.82638024137727
 30
0.0
 11
33.23869416972428
 21
11.52638024137727
 31
0.0
  0
LINE
  5
179
330
1F
100
AcDbEntity
  8
0
100
AcDbLine
 10
34.13869416972429
 20
12.12638024137727
 30
0.0
 11
34.13869416972429
 21
11.82638024137727
 31
0.0
  0
LINE
  5
17A
330
1F
100
AcDbEntity
  8
0
100
AcDbLine
 10
34.13869416972429
 20
12.12638024137727
 30
0.0
 11
33.53869416972429
 21
12.12638024137727
 31
0.0
  0
LINE
  5
17B
330
1F
100
AcDbEntity
  8
0
100
AcDbLine
 10
33.53869416972429
 20
12.12638024137727
 30
0.0
 11
33.53869416972429
 21
11.82638024137727
 31
0.0
  0
LINE
  5
17C
330
1F
100
AcDbEntity
  8
0
100
AcDbLine
 10
33.53869416972429
 20
12.12638024137727
 30
0.0
 11
32.93869416972429
 21
12.12638024137727
 31
0.0
  0
LINE
  5
17D
330
1F
100
AcDbEntity
  8
0
100
AcDbLine
 10
32.93869416972429
 20
12.12638024137727
 30
0.0
 11
32.93869416972429
 21
11.82638024137727
 31
0.0
  0
LINE
  5
17E
330
1F
100
AcDbEntity
  8
0
100
AcDbLine
 10
34.13869416972429
 20
11.82638024137727
 30
0.0
 11
33.53869416972429
 21
11.82638024137727
 31
0.0
  0
LINE
  5
17F
330
1F
100
AcDbEntity
  8
0
100
AcDbLine
 10
33.53869416972429
 20
11.82638024137727
 30
0.0
 11
32.93869416972429
 21
11.82638024137727
 31
0.0
  0
LINE
  5
180
330
1F
100
AcDbEntity
  8
0
100
AcDbLine
 10
34.73869416972429
 20
12.12638024137727
 30
0.0
 11
34.73869416972429
 21
11.82638024137727
 31
0.0
  0
LINE
  5
181
330
1F
100
AcDbEntity
  8
0
100
AcDbLine
 10
34.73869416972429
 20
12.12638024137727
 30
0.0
 11
34.13869416972429
 21
12.12638024137727
 31
0.0
  0
LINE
  5
182
330
1F
100
AcDbEntity
  8
0
100
AcDbLine
 10
35.0386941697243
 20
12.12638024137727
 30
0.0
 11
34.73869416972429
 21
12.12638024137727
 31
0.0
  0
LINE
  5
183
330
1F
100
AcDbEntity
  8
0
100
AcDbLine
 10
35.0386941697243
 20
12.42638024137727
 30
0.0
 11
34.43869416972429
 21
12.42638024137727
 31
0.0
  0
LINE
  5
184
330
1F
100
AcDbEntity
  8
0
100
AcDbLine
 10
34.43869416972429
 20
12.42638024137727
 30
0.0
 11
34.43869416972429
 21
12.12638024137727
 31
0.0
  0
LINE
  5
185
330
1F
100
AcDbEntity
  8
0
100
AcDbLine
 10
34.43869416972429
 20
12.42638024137727
 30
0.0
 11
33.83869416972429
 21
12.42638024137727
 31
0.0
  0
LINE
  5
186
330
1F
100
AcDbEntity
  8
0
100
AcDbLine
 10
33.83869416972429
 20
12.42638024137727
 30
0.0
 11
33.83869416972429
 21
12.12638024137727
 31
0.0
  0
LINE
  5
187
330
1F
100
AcDbEntity
  8
0
100
AcDbLine
 10
33.83869416972429
 20
12.42638024137727
 30
0.0
 11
33.23869416972429
 21
12.42638024137727
 31
0.0
  0
LINE
  5
188
330
1F
100
AcDbEntity
  8
0
100
AcDbLine
 10
33.23869416972429
 20
12.42638024137727
 30
0.0
 11
33.23869416972429
 21
12.12638024137727
 31
0.0
  0
LINE
  5
189
330
1F
100
AcDbEntity
  8
0
100
AcDbLine
 10
34.1386941697243
 20
12.72638024137727
 30
0.0
 11
34.1386941697243
 21
12.42638024137727
 31
0.0
  0
LINE
  5
18A
330
1F
100
AcDbEntity
  8
0
100
AcDbLine
 10
34.1386941697243
 20
12.72638024137727
 30
0.0
 11
33.53869416972429
 21
12.72638024137727
 31
0.0
  0
LINE
  5
18B
330
1F
100
AcDbEntity
  8
0
100
AcDbLine
 10
33.53869416972429
 20
12.72638024137727
 30
0.0
 11
33.53869416972429
 21
12.42638024137727
 31
0.0
  0
LINE
  5
18C
330
1F
100
AcDbEntity
  8
0
100
AcDbLine
 10
33.53869416972429
 20
12.72638024137727
 30
0.0
 11
32.93869416972429
 21
12.72638024137727
 31
0.0
  0
LINE
  5
18D
330
1F
100
AcDbEntity
  8
0
100
AcDbLine
 10
32.93869416972429
 20
12.72638024137727
 30
0.0
 11
32.93869416972429
 21
12.42638024137727
 31
0.0
  0
LINE
  5
18E
330
1F
100
AcDbEntity
  8
0
100
AcDbLine
 10
34.1386941697243
 20
12.42638024137727
 30
0.0
 11
33.53869416972429
 21
12.42638024137727
 31
0.0
  0
LINE
  5
18F
330
1F
100
AcDbEntity
  8
0
100
AcDbLine
 10
33.53869416972429
 20
12.42638024137727
 30
0.0
 11
32.93869416972429
 21
12.42638024137727
 31
0.0
  0
LINE
  5
190
330
1F
100
AcDbEntity
  8
0
100
AcDbLine
 10
34.7386941697243
 20
12.72638024137727
 30
0.0
 11
34.7386941697243
 21
12.42638024137727
 31
0.0
  0
LINE
  5
191
330
1F
100
AcDbEntity
  8
0
100
AcDbLine
 10
34.7386941697243
 20
12.72638024137727
 30
0.0
 11
34.1386941697243
 21
12.72638024137727
 31
0.0
  0
LINE
  5
192
330
1F
100
AcDbEntity
  8
0
100
AcDbLine
 10
35.0386941697243
 20
12.72638024137727
 30
0.0
 11
34.7386941697243
 21
12.72638024137727
 31
0.0
  0
LINE
  5
193
330
1F
100
AcDbEntity
  8
0
100
AcDbLine
 10
35.03869416972427
 20
13.02638024137727
 30
0.0
 11
34.43869416972427
 21
13.02638024137727
 31
0.0
  0
LINE
  5
194
330
1F
100
AcDbEntity
  8
0
100
AcDbLine
 10
34.43869416972427
 20
13.02638024137727
 30
0.0
 11
34.43869416972427
 21
12.72638024137727
 31
0.0
  0
LINE
  5
195
330
1F
100
AcDbEntity
  8
0
100
AcDbLine
 10
34.43869416972427
 20
13.02638024137727
 30
0.0
 11
33.83869416972427
 21
13.02638024137727
 31
0.0
  0
LINE
  5
196
330
1F
100
AcDbEntity
  8
0
100
AcDbLine
 10
33.83869416972427
 20
13.02638024137727
 30
0.0
 11
33.83869416972427
 21
12.72638024137727
 31
0.0
  0
LINE
  5
197
330
1F
100
AcDbEntity
  8
0
100
AcDbLine
 10
33.83869416972427
 20
13.02638024137727
 30
0.0
 11
33.23869416972426
 21
13.02638024137727
 31
0.0
  0
LINE
  5
198
330
1F
100
AcDbEntity
  8
0
100
AcDbLine
 10
33.23869416972426
 20
13.02638024137727
 30
0.0
 11
33.23869416972426
 21
12.72638024137727
 31
0.0
  0
LINE
  5
199
330
1F
100
AcDbEntity
  8
0
100
AcDbLine
 10
34.13869416972427
 20
13.32638024137727
 30
0.0
 11
34.13869416972427
 21
13.02638024137727
 31
0.0
  0
LINE
  5
19A
330
1F
100
AcDbEntity
  8
0
100
AcDbLine
 10
34.13869416972427
 20
13.32638024137727
 30
0.0
 11
33.53869416972427
 21
13.32638024137727
 31
0.0
  0
LINE
  5
19B
330
1F
100
AcDbEntity
  8
0
100
AcDbLine
 10
33.53869416972427
 20
13.32638024137727
 30
0.0
 11
33.53869416972427
 21
13.02638024137727
 31
0.0
  0
LINE
  5
19C
330
1F
100
AcDbEntity
  8
0
100
AcDbLine
 10
33.53869416972427
 20
13.32638024137727
 30
0.0
 11
32.93869416972427
 21
13.32638024137727
 31
0.0
  0
LINE
  5
19D
330
1F
100
AcDbEntity
  8
0
100
AcDbLine
 10
32.93869416972427
 20
13.32638024137727
 30
0.0
 11
32.93869416972427
 21
13.02638024137727
 31
0.0
  0
LINE
  5
19E
330
1F
100
AcDbEntity
  8
0
100
AcDbLine
 10
34.13869416972427
 20
13.02638024137727
 30
0.0
 11
33.53869416972427
 21
13.02638024137727
 31
0.0
  0
LINE
  5
19F
330
1F
100
AcDbEntity
  8
0
100
AcDbLine
 10
33.53869416972427
 20
13.02638024137727
 30
0.0
 11
32.93869416972427
 21
13.02638024137727
 31
0.0
  0
LINE
  5
1A0
330
1F
100
AcDbEntity
  8
0
100
AcDbLine
 10
34.73869416972427
 20
13.32638024137727
 30
0.0
 11
34.73869416972427
 21
13.02638024137727
 31
0.0
  0
LINE
  5
1A1
330
1F
100
AcDbEntity
  8
0
100
AcDbLine
 10
34.73869416972427
 20
13.32638024137727
 30
0.0
 11
34.13869416972427
 21
13.32638024137727
 31
0.0
  0
LINE
  5
1A2
330
1F
100
AcDbEntity
  8
0
100
AcDbLine
 10
35.03869416972428
 20
13.32638024137727
 30
0.0
 11
34.73869416972427
 21
13.32638024137727
 31
0.0
  0
LINE
  5
1A3
330
1F
100
AcDbEntity
  8
0
100
AcDbLine
 10
35.03869416972425
 20
13.62638024137727
 30
0.0
 11
34.43869416972425
 21
13.62638024137727
 31
0.0
  0
LINE
  5
1A4
330
1F
100
AcDbEntity
  8
0
100
AcDbLine
 10
34.43869416972425
 20
13.62638024137727
 30
0.0
 11
34.43869416972425
 21
13.32638024137727
 31
0.0
  0
LINE
  5
1A5
330
1F
100
AcDbEntity
  8
0
100
AcDbLine
 10
34.43869416972425
 20
13.62638024137727
 30
0.0
 11
33.83869416972425
 21
13.62638024137727
 31
0.0
  0
LINE
  5
1A6
330
1F
100
AcDbEntity
  8
0
100
AcDbLine
 10
33.83869416972425
 20
13.62638024137727
 30
0.0
 11
33.83869416972425
 21
13.32638024137727
 31
0.0
  0
LINE
  5
1A7
330
1F
100
AcDbEntity
  8
0
100
AcDbLine
 10
33.83869416972425
 20
13.62638024137727
 30
0.0
 11
33.23869416972425
 21
13.62638024137727
 31
0.0
  0
LINE
  5
1A8
330
1F
100
AcDbEntity
  8
0
100
AcDbLine
 10
33.23869416972425
 20
13.62638024137727
 30
0.0
 11
33.23869416972425
 21
13.32638024137727
 31
0.0
  0
LINE
  5
1A9
330
1F
100
AcDbEntity
  8
0
100
AcDbLine
 10
34.13869416972425
 20
13.92638024137727
 30
0.0
 11
34.13869416972425
 21
13.62638024137727
 31
0.0
  0
LINE
  5
1AA
330
1F
100
AcDbEntity
  8
0
100
AcDbLine
 10
34.13869416972425
 20
13.92638024137727
 30
0.0
 11
33.53869416972425
 21
13.92638024137727
 31
0.0
  0
LINE
  5
1AB
330
1F
100
AcDbEntity
  8
0
100
AcDbLine
 10
33.53869416972425
 20
13.92638024137727
 30
0.0
 11
33.53869416972425
 21
13.62638024137727
 31
0.0
  0
LINE
  5
1AC
330
1F
100
AcDbEntity
  8
0
100
AcDbLine
 10
33.53869416972425
 20
13.92638024137727
 30
0.0
 11
32.93869416972425
 21
13.92638024137727
 31
0.0
  0
LINE
  5
1AD
330
1F
100
AcDbEntity
  8
0
100
AcDbLine
 10
32.93869416972425
 20
13.92638024137727
 30
0.0
 11
32.93869416972425
 21
13.62638024137727
 31
0.0
  0
LINE
  5
1AE
330
1F
100
AcDbEntity
  8
0
100
AcDbLine
 10
34.13869416972425
 20
13.62638024137727
 30
0.0
 11
33.53869416972425
 21
13.62638024137727
 31
0.0
  0
LINE
  5
1AF
330
1F
100
AcDbEntity
  8
0
100
AcDbLine
 10
33.53869416972425
 20
13.62638024137727
 30
0.0
 11
32.93869416972425
 21
13.62638024137727
 31
0.0
  0
LINE
  5
1B0
330
1F
100
AcDbEntity
  8
0
100
AcDbLine
 10
34.73869416972426
 20
13.92638024137727
 30
0.0
 11
34.73869416972426
 21
13.62638024137727
 31
0.0
  0
LINE
  5
1B1
330
1F
100
AcDbEntity
  8
0
100
AcDbLine
 10
34.73869416972426
 20
13.92638024137727
 30
0.0
 11
34.13869416972425
 21
13.92638024137727
 31
0.0
  0
LINE
  5
1B2
330
1F
100
AcDbEntity
  8
0
100
AcDbLine
 10
35.04115804258791
 20
13.92638024137727
 30
0.0
 11
34.73869416972426
 21
13.92638024137727
 31
0.0
  0
LINE
  5
1B3
330
1F
100
AcDbEntity
  8
0
100
AcDbLine
 10
35.07082820757823
 20
14.22638024137727
 30
0.0
 11
34.43869416972426
 21
14.22638024137727
 31
0.0
  0
LINE
  5
1B4
330
1F
100
AcDbEntity
  8
0
100
AcDbLine
 10
34.43869416972426
 20
14.22638024137727
 30
0.0
 11
34.43869416972426
 21
13.92638024137727
 31
0.0
  0
LINE
  5
1B5
330
1F
100
AcDbEntity
  8
0
100
AcDbLine
 10
34.43869416972426
 20
14.22638024137727
 30
0.0
 11
33.83869416972426
 21
14.22638024137727
 31
0.0
  0
LINE
  5
1B6
330
1F
100
AcDbEntity
  8
0
100
AcDbLine
 10
33.83869416972426
 20
14.22638024137727
 30
0.0
 11
33.83869416972426
 21
13.92638024137727
 31
0.0
  0
LINE
  5
1B7
330
1F
100
AcDbEntity
  8
0
100
AcDbLine
 10
33.83869416972426
 20
14.22638024137727
 30
0.0
 11
33.23869416972426
 21
14.22638024137727
 31
0.0
  0
LINE
  5
1B8
330
1F
100
AcDbEntity
  8
0
100
AcDbLine
 10
33.23869416972426
 20
14.22638024137727
 30
0.0
 11
33.23869416972426
 21
13.92638024137727
 31
0.0
  0
LINE
  5
1B9
330
1F
100
AcDbEntity
  8
0
100
AcDbLine
 10
34.13869416972426
 20
14.52638024137727
 30
0.0
 11
34.13869416972426
 21
14.22638024137727
 31
0.0
  0
LINE
  5
1BA
330
1F
100
AcDbEntity
  8
0
100
AcDbLine
 10
34.13869416972426
 20
14.52638024137727
 30
0.0
 11
33.53869416972426
 21
14.52638024137727
 31
0.0
  0
LINE
  5
1BB
330
1F
100
AcDbEntity
  8
0
100
AcDbLine
 10
33.53869416972426
 20
14.52638024137727
 30
0.0
 11
33.53869416972426
 21
14.22638024137727
 31
0.0
  0
LINE
  5
1BC
330
1F
100
AcDbEntity
  8
0
100
AcDbLine
 10
33.53869416972426
 20
14.52638024137727
 30
0.0
 11
32.93869416972426
 21
14.52638024137727
 31
0.0
  0
LINE
  5
1BD
330
1F
100
AcDbEntity
  8
0
100
AcDbLine
 10
32.93869416972426
 20
14.52638024137727
 30
0.0
 11
32.93869416972426
 21
14.22638024137727
 31
0.0
  0
LINE
  5
1BE
330
1F
100
AcDbEntity
  8
0
100
AcDbLine
 10
34.13869416972426
 20
14.22638024137727
 30
0.0
 11
33.53869416972426
 21
14.22638024137727
 31
0.0
  0
LINE
  5
1BF
330
1F
100
AcDbEntity
  8
0
100
AcDbLine
 10
33.53869416972426
 20
14.22638024137727
 30
0.0
 11
32.93869416972426
 21
14.22638024137727
 31
0.0
  0
LINE
  5
1C0
330
1F
100
AcDbEntity
  8
0
100
AcDbLine
 10
34.73869416972426
 20
14.52638024137727
 30
0.0
 11
34.73869416972426
 21
14.22638024137727
 31
0.0
  0
LINE
  5
1C1
330
1F
100
AcDbEntity
  8
0
100
AcDbLine
 10
34.73869416972426
 20
14.52638024137727
 30
0.0
 11
34.13869416972426
 21
14.52638024137727
 31
0.0
  0
LINE
  5
1C2
330
1F
100
AcDbEntity
  8
0
100
AcDbLine
 10
35.03869416972427
 20
14.52638024137727
 30
0.0
 11
34.73869416972426
 21
14.52638024137727
 31
0.0
  0
LINE
  5
1C4
330
1F
100
AcDbEntity
  8
0
100
AcDbLine
 10
34.43869416972427
 20
14.82638024137727
 30
0.0
 11
34.43869416972427
 21
14.52638024137727
 31
0.0
  0
LINE
  5
1C5
330
1F
100
AcDbEntity
  8
0
100
AcDbLine
 10
34.43869416972427
 20
14.82638024137727
 30
0.0
 11
33.83869416972427
 21
14.82638024137727
 31
0.0
  0
LINE
  5
1C6
330
1F
100
AcDbEntity
  8
0
100
AcDbLine
 10
33.83869416972427
 20
14.82638024137727
 30
0.0
 11
33.83869416972427
 21
14.52638024137727
 31
0.0
  0
LINE
  5
1C7
330
1F
100
AcDbEntity
  8
0
100
AcDbLine
 10
33.83869416972427
 20
14.82638024137727
 30
0.0
 11
33.23869416972426
 21
14.82638024137727
 31
0.0
  0
LINE
  5
1C8
330
1F
100
AcDbEntity
  8
0
100
AcDbLine
 10
33.23869416972426
 20
14.82638024137727
 30
0.0
 11
33.23869416972426
 21
14.52638024137727
 31
0.0
  0
LINE
  5
1C9
330
1F
100
AcDbEntity
  8
0
100
AcDbLine
 10
34.13869416972427
 20
15.12638024137727
 30
0.0
 11
34.13869416972427
 21
14.82638024137727
 31
0.0
  0
LINE
  5
1CA
330
1F
100
AcDbEntity
  8
0
100
AcDbLine
 10
34.13869416972427
 20
15.12638024137727
 30
0.0
 11
33.53869416972427
 21
15.12638024137727
 31
0.0
  0
LINE
  5
1CB
330
1F
100
AcDbEntity
  8
0
100
AcDbLine
 10
33.53869416972427
 20
15.12638024137727
 30
0.0
 11
33.53869416972427
 21
14.82638024137727
 31
0.0
  0
LINE
  5
1CC
330
1F
100
AcDbEntity
  8
0
100
AcDbLine
 10
33.53869416972427
 20
15.12638024137727
 30
0.0
 11
32.93869416972427
 21
15.12638024137727
 31
0.0
  0
LINE
  5
1CD
330
1F
100
AcDbEntity
  8
0
100
AcDbLine
 10
32.93869416972427
 20
15.12638024137727
 30
0.0
 11
32.93869416972427
 21
14.82638024137727
 31
0.0
  0
LINE
  5
1CE
330
1F
100
AcDbEntity
  8
0
100
AcDbLine
 10
34.13869416972427
 20
14.82638024137727
 30
0.0
 11
33.53869416972427
 21
14.82638024137727
 31
0.0
  0
LINE
  5
1CF
330
1F
100
AcDbEntity
  8
0
100
AcDbLine
 10
33.53869416972427
 20
14.82638024137727
 30
0.0
 11
32.93869416972427
 21
14.82638024137727
 31
0.0
  0
LINE
  5
1D1
330
1F
100
AcDbEntity
  8
0
100
AcDbLine
 10
34.73869416972427
 20
15.12638024137727
 30
0.0
 11
34.13869416972427
 21
15.12638024137727
 31
0.0
  0
LINE
  5
1D4
330
1F
100
AcDbEntity
  8
0
100
AcDbLine
 10
34.43869416972427
 20
15.42638024137727
 30
0.0
 11
34.43869416972427
 21
15.12638024137727
 31
0.0
  0
LINE
  5
1D5
330
1F
100
AcDbEntity
  8
0
100
AcDbLine
 10
34.43869416972427
 20
15.42638024137727
 30
0.0
 11
33.83869416972427
 21
15.42638024137727
 31
0.0
  0
LINE
  5
1D6
330
1F
100
AcDbEntity
  8
0
100
AcDbLine
 10
33.83869416972427
 20
15.42638024137727
 30
0.0
 11
33.83869416972427
 21
15.12638024137727
 31
0.0
  0
LINE
  5
1D7
330
1F
100
AcDbEntity
  8
0
100
AcDbLine
 10
33.83869416972427
 20
15.42638024137727
 30
0.0
 11
33.23869416972427
 21
15.42638024137727
 31
0.0
  0
LINE
  5
1D8
330
1F
100
AcDbEntity
  8
0
100
AcDbLine
 10
33.23869416972427
 20
15.42638024137727
 30
0.0
 11
33.23869416972427
 21
15.12638024137727
 31
0.0
  0
LINE
  5
1D9
330
1F
100
AcDbEntity
  8
0
100
AcDbLine
 10
34.13869416972428
 20
15.72638024137727
 30
0.0
 11
34.13869416972428
 21
15.42638024137727
 31
0.0
  0
LINE
  5
1DA
330
1F
100
AcDbEntity
  8
0
100
AcDbLine
 10
34.13869416972428
 20
15.72638024137727
 30
0.0
 11
33.53869416972428
 21
15.72638024137727
 31
0.0
  0
LINE
  5
1DB
330
1F
100
AcDbEntity
  8
0
100
AcDbLine
 10
33.53869416972428
 20
15.72638024137727
 30
0.0
 11
33.53869416972428
 21
15.42638024137727
 31
0.0
  0
LINE
  5
1DC
330
1F
100
AcDbEntity
  8
0
100
AcDbLine
 10
33.53869416972428
 20
15.72638024137727
 30
0.0
 11
32.93869416972427
 21
15.72638024137727
 31
0.0
  0
LINE
  5
1DD
330
1F
100
AcDbEntity
  8
0
100
AcDbLine
 10
32.93869416972427
 20
15.72638024137727
 30
0.0
 11
32.93869416972427
 21
15.42638024137727
 31
0.0
  0
LINE
  5
1DE
330
1F
100
AcDbEntity
  8
0
100
AcDbLine
 10
34.13869416972428
 20
15.42638024137727
 30
0.0
 11
33.53869416972428
 21
15.42638024137727
 31
0.0
  0
LINE
  5
1DF
330
1F
100
AcDbEntity
  8
0
100
AcDbLine
 10
33.53869416972428
 20
15.42638024137727
 30
0.0
 11
32.93869416972427
 21
15.42638024137727
 31
0.0
  0
LINE
  5
1E1
330
1F
100
AcDbEntity
  8
0
100
AcDbLine
 10
34.73869416972428
 20
15.72638024137727
 30
0.0
 11
34.13869416972428
 21
15.72638024137727
 31
0.0
  0
LINE
  5
1E4
330
1F
100
AcDbEntity
  8
0
100
AcDbLine
 10
34.43869416972427
 20
16.02638024137727
 30
0.0
 11
34.43869416972427
 21
15.72638024137727
 31
0.0
  0
LINE
  5
1E5
330
1F
100
AcDbEntity
  8
0
100
AcDbLine
 10
34.43869416972427
 20
16.02638024137727
 30
0.0
 11
33.83869416972427
 21
16.02638024137727
 31
0.0
  0
LINE
  5
1E6
330
1F
100
AcDbEntity
  8
0
100
AcDbLine
 10
33.83869416972427
 20
16.02638024137727
 30
0.0
 11
33.83869416972427
 21
15.72638024137727
 31
0.0
  0
LINE
  5
1E7
330
1F
100
AcDbEntity
  8
0
100
AcDbLine
 10
33.83869416972427
 20
16.02638024137727
 30
0.0
 11
33.23869416972427
 21
16.02638024137727
 31
0.0
  0
LINE
  5
1E8
330
1F
100
AcDbEntity
  8
0
100
AcDbLine
 10
33.23869416972427
 20
16.02638024137727
 30
0.0
 11
33.23869416972427
 21
15.72638024137727
 31
0.0
  0
LINE
  5
1E9
330
1F
100
AcDbEntity
  8
0
100
AcDbLine
 10
34.13869416972428
 20
16.32638024137727
 30
0.0
 11
34.13869416972428
 21
16.02638024137727
 31
0.0
  0
LINE
  5
1EA
330
1F
100
AcDbEntity
  8
0
100
AcDbLine
 10
34.13869416972428
 20
16.32638024137727
 30
0.0
 11
33.53869416972428
 21
16.32638024137727
 31
0.0
  0
LINE
  5
1EB
330
1F
100
AcDbEntity
  8
0
100
AcDbLine
 10
33.53869416972428
 20
16.32638024137727
 30
0.0
 11
33.53869416972428
 21
16.02638024137727
 31
0.0
  0
LINE
  5
1EC
330
1F
100
AcDbEntity
  8
0
100
AcDbLine
 10
33.53869416972428
 20
16.32638024137727
 30
0.0
 11
32.93869416972427
 21
16.32638024137727
 31
0.0
  0
LINE
  5
1ED
330
1F
100
AcDbEntity
  8
0
100
AcDbLine
 10
32.93869416972427
 20
16.32638024137727
 30
0.0
 11
32.93869416972427
 21
16.02638024137727
 31
0.0
  0
LINE
  5
1EE
330
1F
100
AcDbEntity
  8
0
100
AcDbLine
 10
34.13869416972428
 20
16.02638024137727
 30
0.0
 11
33.53869416972428
 21
16.02638024137727
 31
0.0
  0
LINE
  5
1EF
330
1F
100
AcDbEntity
  8
0
100
AcDbLine
 10
33.53869416972428
 20
16.02638024137727
 30
0.0
 11
32.93869416972427
 21
16.02638024137727
 31
0.0
  0
LINE
  5
1F1
330
1F
100
AcDbEntity
  8
0
100
AcDbLine
 10
34.73869416972428
 20
16.32638024137727
 30
0.0
 11
34.13869416972428
 21
16.32638024137727
 31
0.0
  0
LINE
  5
1F4
330
1F
100
AcDbEntity
  8
0
100
AcDbLine
 10
34.43869416972427
 20
16.62638024137727
 30
0.0
 11
34.43869416972427
 21
16.32638024137727
 31
0.0
  0
LINE
  5
1F5
330
1F
100
AcDbEntity
  8
0
100
AcDbLine
 10
34.43869416972427
 20
16.62638024137727
 30
0.0
 11
33.83869416972427
 21
16.62638024137727
 31
0.0
  0
LINE
  5
1F6
330
1F
100
AcDbEntity
  8
0
100
AcDbLine
 10
33.83869416972427
 20
16.62638024137727
 30
0.0
 11
33.83869416972427
 21
16.32638024137727
 31
0.0
  0
LINE
  5
1F7
330
1F
100
AcDbEntity
  8
0
100
AcDbLine
 10
33.83869416972427
 20
16.62638024137727
 30
0.0
 11
33.23869416972427
 21
16.62638024137727
 31
0.0
  0
LINE
  5
1F8
330
1F
100
AcDbEntity
  8
0
100
AcDbLine
 10
33.23869416972427
 20
16.62638024137727
 30
0.0
 11
33.23869416972427
 21
16.32638024137727
 31
0.0
  0
LINE
  5
1F9
330
1F
100
AcDbEntity
  8
0
100
AcDbLine
 10
34.13869416972428
 20
16.92638024137727
 30
0.0
 11
34.13869416972428
 21
16.62638024137727
 31
0.0
  0
LINE
  5
1FA
330
1F
100
AcDbEntity
  8
0
100
AcDbLine
 10
34.13869416972428
 20
16.92638024137727
 30
0.0
 11
33.53869416972428
 21
16.92638024137727
 31
0.0
  0
LINE
  5
1FB
330
1F
100
AcDbEntity
  8
0
100
AcDbLine
 10
33.53869416972428
 20
16.92638024137727
 30
0.0
 11
33.53869416972428
 21
16.62638024137727
 31
0.0
  0
LINE
  5
1FC
330
1F
100
AcDbEntity
  8
0
100
AcDbLine
 10
33.53869416972428
 20
16.92638024137727
 30
0.0
 11
32.93869416972427
 21
16.92638024137727
 31
0.0
  0
LINE
  5
1FD
330
1F
100
AcDbEntity
  8
0
100
AcDbLine
 10
32.93869416972427
 20
16.92638024137727
 30
0.0
 11
32.93869416972427
 21
16.62638024137727
 31
0.0
  0
LINE
  5
1FE
330
1F
100
AcDbEntity
  8
0
100
AcDbLine
 10
34.13869416972428
 20
16.62638024137727
 30
0.0
 11
33.53869416972428
 21
16.62638024137727
 31
0.0
  0
LINE
  5
1FF
330
1F
100
AcDbEntity
  8
0
100
AcDbLine
 10
33.53869416972428
 20
16.62638024137727
 30
0.0
 11
32.93869416972427
 21
16.62638024137727
 31
0.0
  0
LINE
  5
201
330
1F
100
AcDbEntity
  8
0
100
AcDbLine
 10
34.73869416972428
 20
16.92638024137727
 30
0.0
 11
34.13869416972428
 21
16.92638024137727
 31
0.0
  0
LINE
  5
204
330
1F
100
AcDbEntity
  8
0
100
AcDbLine
 10
34.43869416972427
 20
17.22638024137727
 30
0.0
 11
34.43869416972427
 21
16.92638024137727
 31
0.0
  0
LINE
  5
205
330
1F
100
AcDbEntity
  8
0
100
AcDbLine
 10
34.43869416972427
 20
17.22638024137727
 30
0.0
 11
33.83869416972427
 21
17.22638024137727
 31
0.0
  0
LINE
  5
206
330
1F
100
AcDbEntity
  8
0
100
AcDbLine
 10
33.83869416972427
 20
17.22638024137727
 30
0.0
 11
33.83869416972427
 21
16.92638024137727
 31
0.0
  0
LINE
  5
207
330
1F
100
AcDbEntity
  8
0
100
AcDbLine
 10
33.83869416972427
 20
17.22638024137727
 30
0.0
 11
33.23869416972427
 21
17.22638024137727
 31
0.0
  0
LINE
  5
208
330
1F
100
AcDbEntity
  8
0
100
AcDbLine
 10
33.23869416972427
 20
17.22638024137727
 30
0.0
 11
33.23869416972427
 21
16.92638024137727
 31
0.0
  0
LINE
  5
209
330
1F
100
AcDbEntity
  8
0
100
AcDbLine
 10
34.13869416972428
 20
17.52638024137727
 30
0.0
 11
34.13869416972428
 21
17.22638024137727
 31
0.0
  0
LINE
  5
20A
330
1F
100
AcDbEntity
  8
0
100
AcDbLine
 10
34.13869416972428
 20
17.52638024137727
 30
0.0
 11
33.53869416972428
 21
17.52638024137727
 31
0.0
  0
LINE
  5
20B
330
1F
100
AcDbEntity
  8
0
100
AcDbLine
 10
33.53869416972428
 20
17.52638024137727
 30
0.0
 11
33.53869416972428
 21
17.22638024137727
 31
0.0
  0
LINE
  5
20C
330
1F
100
AcDbEntity
  8
0
100
AcDbLine
 10
33.53869416972428
 20
17.52638024137727
 30
0.0
 11
32.93869416972427
 21
17.52638024137727
 31
0.0
  0
LINE
  5
20D
330
1F
100
AcDbEntity
  8
0
100
AcDbLine
 10
32.93869416972427
 20
17.52638024137727
 30
0.0
 11
32.93869416972427
 21
17.22638024137727
 31
0.0
  0
LINE
  5
20E
330
1F
100
AcDbEntity
  8
0
100
AcDbLine
 10
34.13869416972428
 20
17.22638024137727
 30
0.0
 11
33.53869416972428
 21
17.22638024137727
 31
0.0
  0
LINE
  5
20F
330
1F
100
AcDbEntity
  8
0
100
AcDbLine
 10
33.53869416972428
 20
17.22638024137727
 30
0.0
 11
32.93869416972427
 21
17.22638024137727
 31
0.0
  0
LINE
  5
211
330
1F
100
AcDbEntity
  8
0
100
AcDbLine
 10
34.73869416972428
 20
17.52638024137727
 30
0.0
 11
34.13869416972428
 21
17.52638024137727
 31
0.0
  0
LINE
  5
26C
330
1F
100
AcDbEntity
  8
0
100
AcDbLine
 10
34.43869416972427
 20
14.82638024137727
 30
0.0
 11
35.03869416972427
 21
14.82638024137727
 31
0.0
  0
LINE
  5
26D
330
1F
100
AcDbEntity
  8
0
100
AcDbLine
 10
35.03869416972427
 20
14.82638024137727
 30
0.0
 11
35.03869416972427
 21
14.52638024137727
 31
0.0
  0
LINE
  5
26E
330
1F
100
AcDbEntity
  8
0
100
AcDbLine
 10
35.03869416972427
 20
14.52638024137727
 30
0.0
 11
35.13517416274352
 21
14.52638024137727
 31
0.0
  0
LINE
  5
26F
330
1F
100
AcDbEntity
  8
0
100
AcDbLine
 10
35.33869416972428
 20
17.52638024137727
 30
0.0
 11
35.33869416972428
 21
17.22638024137727
 31
0.0
  0
LINE
  5
270
330
1F
100
AcDbEntity
  8
0
100
AcDbLine
 10
35.33869416972428
 20
17.52638024137727
 30
0.0
 11
34.73869416972428
 21
17.52638024137727
 31
0.0
  0
LINE
  5
271
330
1F
100
AcDbEntity
  8
0
100
AcDbLine
 10
35.33869416972428
 20
17.22638024137727
 30
0.0
 11
34.73869416972428
 21
17.22638024137727
 31
0.0
  0
LINE
  5
272
330
1F
100
AcDbEntity
  8
0
100
AcDbLine
 10
34.73869416972428
 20
17.52638024137727
 30
0.0
 11
34.73869416972429
 21
17.22638024137727
 31
0.0
  0
LINE
  5
273
330
1F
100
AcDbEntity
  8
0
100
AcDbLine
 10
34.73869416972429
 20
17.22638024137727
 30
0.0
 11
34.43869416972427
 21
17.22638024137727
 31
0.0
  0
LINE
  5
274
330
1F
100
AcDbEntity
  8
0
100
AcDbLine
 10
35.33869416972429
 20
16.92638024137727
 30
0.0
 11
35.33869416972429
 21
16.62638024137727
 31
0.0
  0
LINE
  5
275
330
1F
100
AcDbEntity
  8
0
100
AcDbLine
 10
35.33869416972429
 20
16.92638024137727
 30
0.0
 11
34.73869416972429
 21
16.92638024137727
 31
0.0
  0
LINE
  5
276
330
1F
100
AcDbEntity
  8
0
100
AcDbLine
 10
35.33869416972429
 20
16.62638024137727
 30
0.0
 11
34.73869416972429
 21
16.62638024137727
 31
0.0
  0
LINE
  5
277
330
1F
100
AcDbEntity
  8
0
100
AcDbLine
 10
35.33869416972428
 20
16.32638024137727
 30
0.0
 11
35.33869416972428
 21
16.02638024137727
 31
0.0
  0
LINE
  5
278
330
1F
100
AcDbEntity
  8
0
100
AcDbLine
 10
35.33869416972428
 20
16.32638024137727
 30
0.0
 11
34.73869416972428
 21
16.32638024137727
 31
0.0
  0
LINE
  5
279
330
1F
100
AcDbEntity
  8
0
100
AcDbLine
 10
35.33869416972428
 20
16.02638024137727
 30
0.0
 11
34.73869416972428
 21
16.02638024137727
 31
0.0
  0
LINE
  5
27A
330
1F
100
AcDbEntity
  8
0
100
AcDbLine
 10
35.33869416972429
 20
15.72638024137727
 30
0.0
 11
35.33869416972429
 21
15.42638024137727
 31
0.0
  0
LINE
  5
27B
330
1F
100
AcDbEntity
  8
0
100
AcDbLine
 10
35.33869416972429
 20
15.72638024137727
 30
0.0
 11
34.73869416972429
 21
15.72638024137727
 31
0.0
  0
LINE
  5
27C
330
1F
100
AcDbEntity
  8
0
100
AcDbLine
 10
35.33869416972429
 20
15.42638024137727
 30
0.0
 11
34.73869416972429
 21
15.42638024137727
 31
0.0
  0
LINE
  5
27D
330
1F
100
AcDbEntity
  8
0
100
AcDbLine
 10
35.33869416972429
 20
15.12638024137727
 30
0.0
 11
35.33869416972429
 21
15.04799132034862
 31
0.0
  0
LINE
  5
27E
330
1F
100
AcDbEntity
  8
0
100
AcDbLine
 10
35.33869416972429
 20
15.12638024137727
 30
0.0
 11
34.73869416972429
 21
15.12638024137727
 31
0.0
  0
LINE
  5
27F
330
1F
100
AcDbEntity
  8
0
100
AcDbLine
 10
35.23687002292245
 20
14.82638024137727
 30
0.0
 11
34.73869416972429
 21
14.82638024137727
 31
0.0
  0
LINE
  5
280
330
1F
100
AcDbEntity
  8
0
100
AcDbLine
 10
35.33869416972429
 20
15.12638024137727
 30
0.0
 11
35.38074342887062
 21
15.12638024137727
 31
0.0
  0
LINE
  5
281
330
1F
100
AcDbEntity
  8
0
100
AcDbLine
 10
34.73869416972429
 20
15.42638024137727
 30
0.0
 11
34.73869416972428
 21
15.72638024137727
 31
0.0
  0
LINE
  5
282
330
1F
100
AcDbEntity
  8
0
100
AcDbLine
 10
34.73869416972428
 20
16.02638024137727
 30
0.0
 11
34.73869416972429
 21
16.32638024137727
 31
0.0
  0
LINE
  5
283
330
1F
100
AcDbEntity
  8
0
100
AcDbLine
 10
34.73869416972429
 20
16.62638024137727
 30
0.0
 11
34.73869416972429
 21
16.92638024137727
 31
0.0
  0
LINE
  5
284
330
1F
100
AcDbEntity
  8
0
100
AcDbLine
 10
35.93869416972428
 20
17.52638024137727
 30
0.0
 11
35.93869416972428
 21
17.22638024137727
 31
0.0
  0
LINE
  5
285
330
1F
100
AcDbEntity
  8
0
100
AcDbLine
 10
35.93869416972428
 20
17.52638024137727
 30
0.0
 11
35.33869416972428
 21
17.52638024137727
 31
0.0
  0
LINE
  5
286
330
1F
100
AcDbEntity
  8
0
100
AcDbLine
 10
35.93869416972428
 20
17.22638024137727
 30
0.0
 11
35.33869416972428
 21
17.22638024137727
 31
0.0
  0
LINE
  5
287
330
1F
100
AcDbEntity
  8
0
100
AcDbLine
 10
36.53869416972428
 20
17.52638024137727
 30
0.0
 11
36.53869416972428
 21
17.22638024137727
 31
0.0
  0
LINE
  5
288
330
1F
100
AcDbEntity
  8
0
100
AcDbLine
 10
36.53869416972428
 20
17.52638024137727
 30
0.0
 11
35.93869416972428
 21
17.52638024137727
 31
0.0
  0
LINE
  5
289
330
1F
100
AcDbEntity
  8
0
100
AcDbLine
 10
36.53869416972428
 20
17.22638024137727
 30
0.0
 11
35.93869416972428
 21
17.22638024137727
 31
0.0
  0
LINE
  5
28A
330
1F
100
AcDbEntity
  8
0
100
AcDbLine
 10
37.13869416972428
 20
17.52638024137727
 30
0.0
 11
37.13869416972428
 21
17.22638024137727
 31
0.0
  0
LINE
  5
28B
330
1F
100
AcDbEntity
  8
0
100
AcDbLine
 10
37.13869416972428
 20
17.52638024137727
 30
0.0
 11
36.53869416972428
 21
17.52638024137727
 31
0.0
  0
LINE
  5
28C
330
1F
100
AcDbEntity
  8
0
100
AcDbLine
 10
37.13869416972428
 20
17.22638024137727
 30
0.0
 11
36.53869416972428
 21
17.22638024137727
 31
0.0
  0
LINE
  5
28D
330
1F
100
AcDbEntity
  8
0
100
AcDbLine
 10
37.73869416972428
 20
17.52638024137727
 30
0.0
 11
37.73869416972428
 21
17.22638024137727
 31
0.0
  0
LINE
  5
28E
330
1F
100
AcDbEntity
  8
0
100
AcDbLine
 10
37.73869416972428
 20
17.52638024137727
 30
0.0
 11
37.13869416972428
 21
17.52638024137727
 31
0.0
  0
LINE
  5
28F
330
1F
100
AcDbEntity
  8
0
100
AcDbLine
 10
37.73869416972428
 20
17.22638024137727
 30
0.0
 11
37.13869416972428
 21
17.22638024137727
 31
0.0
  0
ARC
  5
292
330
1F
100
AcDbEntity
  8
0
100
AcDbCircle
 10
37.73869416972428
 20
13.81105963266329
 30
0.0
 40
2.700000000000009
100
AcDbArc
 50
359.9999999999999
 51
180.0000000000001
  0
LINE
  5
293
330
1F
100
AcDbEntity
  8
0
100
AcDbLine
 10
34.73869416972429
 20
16.62638024137727
 30
0.0
 11
34.43869416972427
 21
16.62638024137727
 31
0.0
  0
LINE
  5
294
330
1F
100
AcDbEntity
  8
0
100
AcDbLine
 10
34.73869416972428
 20
16.02638024137727
 30
0.0
 11
34.43869416972427
 21
16.02638024137727
 31
0.0
  0
LINE
  5
295
330
1F
100
AcDbEntity
  8
0
100
AcDbLine
 10
34.73869416972429
 20
15.42638024137727
 30
0.0
 11
34.43869416972427
 21
15.42638024137727
 31
0.0
  0
LINE
  5
298
330
1F
100
AcDbEntity
  8
0
100
AcDbLine
 10
40.4386941697243
 20
13.81105963266329
 30
0.0
 11
40.43869416972429
 21
10.32638024137727
 31
0.0
  0
LINE
  5
299
330
1F
100
AcDbEntity
  8
0
100
AcDbLine
 10
39.83869416972431
 20
13.81105963266329
 30
0.0
 11
39.83869416972429
 21
10.32638024137727
 31
0.0
  0
LINE
  5
29A
330
1F
100
AcDbEntity
  8
0
100
AcDbLine
 10
39.83869416972429
 20
10.32638024137727
 30
0.0
 11
40.43869416972429
 21
10.32638024137727
 31
0.0
  0
LINE
  5
29B
330
1F
100
AcDbEntity
  8
0
100
AcDbLine
 10
39.83869416972429
 20
10.82638024137727
 30
0.0
 11
40.43869416972429
 21
10.82638024137727
 31
0.0
  0
LINE
  5
29C
330
1F
100
AcDbEntity
  8
0
100
AcDbLine
 10
39.83863828301603
 20
13.82638024137727
 30
0.0
 11
40.43869416972431
 21
13.82638024137727
 31
0.0
  0
LINE
  5
29D
330
1F
100
AcDbEntity
  8
0
100
AcDbLine
 10
39.83869416972431
 20
13.32638024137727
 30
0.0
 11
40.43869416972431
 21
13.32638024137727
 31
0.0
  0
LINE
  5
29E
330
1F
100
AcDbEntity
  8
0
100
AcDbLine
 10
39.83869416972431
 20
12.82638024137727
 30
0.0
 11
40.43869416972431
 21
12.82638024137727
 31
0.0
  0
LINE
  5
29F
330
1F
100
AcDbEntity
  8
0
100
AcDbLine
 10
39.8386941697243
 20
12.32638024137727
 30
0.0
 11
40.4386941697243
 21
12.32638024137727
 31
0.0
  0
LINE
  5
2A0
330
1F
100
AcDbEntity
  8
0
100
AcDbLine
 10
39.8386941697243
 20
11.82638024137727
 30
0.0
 11
40.4386941697243
 21
11.82638024137727
 31
0.0
  0
LINE
  5
2A1
330
1F
100
AcDbEntity
  8
0
100
AcDbLine
 10
39.83869416972429
 20
11.32638024137727
 30
0.0
 11
40.43869416972429
 21
11.32638024137727
 31
0.0
  0
ARC
  5
2A2
330
1F
100
AcDbEntity
  8
0
100
AcDbCircle
 10
37.73869416972428
 20
13.81105963266329
 30
0.0
 40
2.100000000000009
100
AcDbArc
 50
359.9999999999999
 51
180.0000000000001
  0
LINE
  5
2B6
330
1F
100
AcDbEntity
  8
0
100
AcDbLine
 10
35.76044905958639
 20
14.51572003613118
 30
0.0
 11
35.19523617097556
 21
14.71705157997915
 31
0.0
  0
LINE
  5
2BA
330
1F
100
AcDbEntity
  8
0
100
AcDbLine
 10
37.27238989989495
 20
15.85863388722379
 30
0.0
 11
37.13916010851515
 21
16.4436551028125
 31
0.0
  0
LINE
  5
2BB
330
1F
100
AcDbEntity
  8
0
100
AcDbLine
 10
36.62531721200767
 20
15.59161902510875
 30
0.0
 11
36.30720950980292
 21
16.10035028009316
 31
0.0
  0
LINE
  5
2BC
330
1F
100
AcDbEntity
  8
0
100
AcDbLine
 10
36.10195307497777
 20
15.12676423049977
 30
0.0
 11
35.63431276219306
 21
15.50267982988161
 31
0.0
  0
LINE
  5
2BD
330
1F
100
AcDbEntity
  8
0
100
AcDbLine
 10
39.71693927986218
 20
14.51572003613118
 30
0.0
 11
40.28215216847301
 21
14.71705157997915
 31
0.0
  0
LINE
  5
2BE
330
1F
100
AcDbEntity
  8
0
100
AcDbLine
 10
38.20499843955361
 20
15.85863388722379
 30
0.0
 11
38.33822823093342
 21
16.4436551028125
 31
0.0
  0
LINE
  5
2BF
330
1F
100
AcDbEntity
  8
0
100
AcDbLine
 10
38.8520711274409
 20
15.59161902510875
 30
0.0
 11
39.17017882964565
 21
16.10035028009316
 31
0.0
  0
LINE
  5
2C0
330
1F
100
AcDbEntity
  8
0
100
AcDbLine
 10
39.37543526447079
 20
15.12676423049977
 30
0.0
 11
39.84307557725551
 21
15.50267982988161
 31
0.0
  0
LINE
  5
2C1
330
1F
100
AcDbEntity
  8
0
100
AcDbLine
 10
34.73869416972429
 20
14.82638024137727
 30
0.0
 11
34.73869416972429
 21
15.12638024137727
 31
0.0
  0
LINE
  5
2C2
330
1F
100
AcDbEntity
  8
0
100
AcDbLine
 10
35.03869416972428
 20
15.12638024137727
 30
0.0
 11
35.03869416972428
 21
15.42638024137727
 31
0.0
  0
LINE
  5
2C3
330
1F
100
AcDbEntity
  8
0
100
AcDbLine
 10
35.03869416972428
 20
15.72638024137727
 30
0.0
 11
35.03869416972428
 21
16.02638024137727
 31
0.0
  0
LINE
  5
2C4
330
1F
100
AcDbEntity
  8
0
100
AcDbLine
 10
35.03869416972428
 20
16.32638024137727
 30
0.0
 11
35.03869416972428
 21
16.62638024137727
 31
0.0
  0
LINE
  5
2C5
330
1F
100
AcDbEntity
  8
0
100
AcDbLine
 10
35.03869416972428
 20
16.92638024137727
 30
0.0
 11
35.03869416972428
 21
17.22638024137727
 31
0.0
  0
LINE
  5
2C6
330
1F
100
AcDbEntity
  8
0
100
AcDbLine
 10
35.93869416972429
 20
16.92638024137727
 30
0.0
 11
35.93869416972429
 21
16.62638024137727
 31
0.0
  0
LINE
  5
2C7
330
1F
100
AcDbEntity
  8
0
100
AcDbLine
 10
35.93869416972429
 20
16.92638024137727
 30
0.0
 11
35.33869416972429
 21
16.92638024137727
 31
0.0
  0
LINE
  5
2C8
330
1F
100
AcDbEntity
  8
0
100
AcDbLine
 10
35.93869416972429
 20
16.62638024137727
 30
0.0
 11
35.33869416972429
 21
16.62638024137727
 31
0.0
  0
LINE
  5
2C9
330
1F
100
AcDbEntity
  8
0
100
AcDbLine
 10
36.53869416972429
 20
16.92638024137727
 30
0.0
 11
36.53869416972429
 21
16.62638024137727
 31
0.0
  0
LINE
  5
2CA
330
1F
100
AcDbEntity
  8
0
100
AcDbLine
 10
36.53869416972429
 20
16.92638024137727
 30
0.0
 11
35.93869416972429
 21
16.92638024137727
 31
0.0
  0
LINE
  5
2CB
330
1F
100
AcDbEntity
  8
0
100
AcDbLine
 10
36.53869416972429
 20
16.62638024137727
 30
0.0
 11
35.93869416972429
 21
16.62638024137727
 31
0.0
  0
LINE
  5
2CC
330
1F
100
AcDbEntity
  8
0
100
AcDbLine
 10
37.13869416972429
 20
16.92638024137727
 30
0.0
 11
37.13869416972429
 21
16.62638024137727
 31
0.0
  0
LINE
  5
2CD
330
1F
100
AcDbEntity
  8
0
100
AcDbLine
 10
37.13869416972429
 20
16.92638024137727
 30
0.0
 11
36.53869416972429
 21
16.92638024137727
 31
0.0
  0
LINE
  5
2CE
330
1F
100
AcDbEntity
  8
0
100
AcDbLine
 10
37.13869416972429
 20
16.62638024137727
 30
0.0
 11
36.53869416972429
 21
16.62638024137727
 31
0.0
  0
LINE
  5
2CF
330
1F
100
AcDbEntity
  8
0
100
AcDbLine
 10
37.73869416972429
 20
16.92638024137727
 30
0.0
 11
37.73869416972429
 21
16.62638024137727
 31
0.0
  0
LINE
  5
2D0
330
1F
100
AcDbEntity
  8
0
100
AcDbLine
 10
37.73869416972429
 20
16.92638024137727
 30
0.0
 11
37.13869416972429
 21
16.92638024137727
 31
0.0
  0
LINE
  5
2D1
330
1F
100
AcDbEntity
  8
0
100
AcDbLine
 10
37.73869416972429
 20
16.62638024137727
 30
0.0
 11
37.13869416972429
 21
16.62638024137727
 31
0.0
  0
LINE
  5
2D2
330
1F
100
AcDbEntity
  8
0
100
AcDbLine
 10
35.93869416972428
 20
16.32638024137727
 30
0.0
 11
35.93869416972428
 21
16.02638024137727
 31
0.0
  0
LINE
  5
2D3
330
1F
100
AcDbEntity
  8
0
100
AcDbLine
 10
35.93869416972428
 20
16.32638024137727
 30
0.0
 11
35.33869416972428
 21
16.32638024137727
 31
0.0
  0
LINE
  5
2D4
330
1F
100
AcDbEntity
  8
0
100
AcDbLine
 10
35.93869416972428
 20
16.02638024137727
 30
0.0
 11
35.33869416972428
 21
16.02638024137727
 31
0.0
  0
LINE
  5
2D5
330
1F
100
AcDbEntity
  8
0
100
AcDbLine
 10
36.53869416972428
 20
16.32638024137727
 30
0.0
 11
36.53869416972428
 21
16.22973695715286
 31
0.0
  0
LINE
  5
2D6
330
1F
100
AcDbEntity
  8
0
100
AcDbLine
 10
36.53869416972428
 20
16.32638024137727
 30
0.0
 11
35.93869416972428
 21
16.32638024137727
 31
0.0
  0
LINE
  5
2D7
330
1F
100
AcDbEntity
  8
0
100
AcDbLine
 10
36.19520636588287
 20
16.02638024137727
 30
0.0
 11
35.93869416972428
 21
16.02638024137727
 31
0.0
  0
LINE
  5
2D9
330
1F
100
AcDbEntity
  8
0
100
AcDbLine
 10
36.75728587784022
 20
16.32638024137727
 30
0.0
 11
36.53869416972428
 21
16.32638024137727
 31
0.0
  0
LINE
  5
2DF
330
1F
100
AcDbEntity
  8
0
100
AcDbLine
 10
35.83565792050685
 20
15.72638024137727
 30
0.0
 11
35.33869416972428
 21
15.72638024137727
 31
0.0
  0
LINE
  5
2E0
330
1F
100
AcDbEntity
  8
0
100
AcDbLine
 10
35.57519253324143
 20
15.42638024137727
 30
0.0
 11
35.33869416972428
 21
15.42638024137727
 31
0.0
  0
LINE
  5
2EA
330
1F
100
AcDbEntity
  8
0
100
AcDbLine
 10
35.63869416972428
 20
16.32638024137727
 30
0.0
 11
35.63869416972428
 21
16.62638024137727
 31
0.0
  0
LINE
  5
2EB
330
1F
100
AcDbEntity
  8
0
100
AcDbLine
 10
35.63869416972429
 20
16.92638024137727
 30
0.0
 11
35.63869416972429
 21
17.22638024137727
 31
0.0
  0
LINE
  5
2EC
330
1F
100
AcDbEntity
  8
0
100
AcDbLine
 10
36.23869416972429
 20
17.22638024137727
 30
0.0
 11
36.23869416972429
 21
16.92638024137727
 31
0.0
  0
LINE
  5
2ED
330
1F
100
AcDbEntity
  8
0
100
AcDbLine
 10
36.23869416972429
 20
16.62638024137727
 30
0.0
 11
36.23869416972429
 21
16.32638024137727
 31
0.0
  0
LINE
  5
2EE
330
1F
100
AcDbEntity
  8
0
100
AcDbLine
 10
35.63869416972428
 20
16.02638024137727
 30
0.0
 11
35.63869416972428
 21
15.72638024137727
 31
0.0
  0
LINE
  5
2EF
330
1F
100
AcDbEntity
  8
0
100
AcDbLine
 10
36.83869416972429
 20
16.62638024137727
 30
0.0
 11
36.83869416972429
 21
16.35664404493488
 31
0.0
  0
LINE
  5
2F0
330
1F
100
AcDbEntity
  8
0
100
AcDbLine
 10
36.83869416972428
 20
17.22638024137727
 30
0.0
 11
36.83869416972429
 21
16.92638024137727
 31
0.0
  0
LINE
  5
2F1
330
1F
100
AcDbEntity
  8
0
100
AcDbLine
 10
37.43869416972429
 20
17.22638024137727
 30
0.0
 11
37.43869416972429
 21
16.92638024137727
 31
0.0
  0
LINE
  5
2F2
330
1F
100
AcDbEntity
  8
0
100
AcDbLine
 10
37.43869416972429
 20
16.62638024137727
 30
0.0
 11
37.43869416972429
 21
16.49434120566305
 31
0.0
  0
LINE
  5
2F5
330
1F
100
AcDbEntity
  8
0
100
AcDbLine
 10
42.2386941697243
 20
10.32638024137727
 30
0.0
 11
41.33869416972429
 21
10.32638024137727
 31
0.0
  0
LINE
  5
2F7
330
1F
100
AcDbEntity
  8
0
100
AcDbLine
 10
41.33869416972429
 20
10.32638024137727
 30
0.0
 11
40.7386941697243
 21
10.32638024137727
 31
0.0
  0
LINE
  5
2FC
330
1F
100
AcDbEntity
  8
0
100
AcDbLine
 10
41.6386941697243
 20
10.62638024137727
 30
0.0
 11
41.6386941697243
 21
10.32638024137727
 31
0.0
  0
LINE
  5
2FD
330
1F
100
AcDbEntity
  8
0
100
AcDbLine
 10
41.6386941697243
 20
10.62638024137727
 30
0.0
 11
41.0386941697243
 21
10.62638024137727
 31
0.0
  0
LINE
  5
2FE
330
1F
100
AcDbEntity
  8
0
100
AcDbLine
 10
41.0386941697243
 20
10.62638024137727
 30
0.0
 11
41.0386941697243
 21
10.32638024137727
 31
0.0
  0
LINE
  5
2FF
330
1F
100
AcDbEntity
  8
0
100
AcDbLine
 10
41.0386941697243
 20
10.62638024137727
 30
0.0
 11
40.43869416972429
 21
10.62638024137727
 31
0.0
  0
LINE
  5
300
330
1F
100
AcDbEntity
  8
0
100
AcDbLine
 10
40.43869416972429
 20
10.62638024137727
 30
0.0
 11
40.43869416972429
 21
10.32638024137727
 31
0.0
  0
LINE
  5
301
330
1F
100
AcDbEntity
  8
0
100
AcDbLine
 10
41.6386941697243
 20
10.32638024137727
 30
0.0
 11
41.0386941697243
 21
10.32638024137727
 31
0.0
  0
LINE
  5
302
330
1F
100
AcDbEntity
  8
0
100
AcDbLine
 10
41.0386941697243
 20
10.32638024137727
 30
0.0
 11
40.43869416972429
 21
10.32638024137727
 31
0.0
  0
LINE
  5
303
330
1F
100
AcDbEntity
  8
0
100
AcDbLine
 10
42.2386941697243
 20
10.62638024137727
 30
0.0
 11
42.2386941697243
 21
10.32638024137727
 31
0.0
  0
LINE
  5
304
330
1F
100
AcDbEntity
  8
0
100
AcDbLine
 10
42.2386941697243
 20
10.62638024137727
 30
0.0
 11
41.6386941697243
 21
10.62638024137727
 31
0.0
  0
LINE
  5
305
330
1F
100
AcDbEntity
  8
0
100
AcDbLine
 10
42.5386941697243
 20
10.62638024137727
 30
0.0
 11
42.2386941697243
 21
10.62638024137727
 31
0.0
  0
LINE
  5
306
330
1F
100
AcDbEntity
  8
0
100
AcDbLine
 10
42.5386941697243
 20
10.92638024137727
 30
0.0
 11
41.93869416972431
 21
10.92638024137727
 31
0.0
  0
LINE
  5
307
330
1F
100
AcDbEntity
  8
0
100
AcDbLine
 10
41.93869416972431
 20
10.92638024137727
 30
0.0
 11
41.93869416972431
 21
10.62638024137727
 31
0.0
  0
LINE
  5
308
330
1F
100
AcDbEntity
  8
0
100
AcDbLine
 10
41.93869416972431
 20
10.92638024137727
 30
0.0
 11
41.3386941697243
 21
10.92638024137727
 31
0.0
  0
LINE
  5
309
330
1F
100
AcDbEntity
  8
0
100
AcDbLine
 10
41.3386941697243
 20
10.92638024137727
 30
0.0
 11
41.3386941697243
 21
10.62638024137727
 31
0.0
  0
LINE
  5
30A
330
1F
100
AcDbEntity
  8
0
100
AcDbLine
 10
41.3386941697243
 20
10.92638024137727
 30
0.0
 11
40.7386941697243
 21
10.92638024137727
 31
0.0
  0
LINE
  5
30B
330
1F
100
AcDbEntity
  8
0
100
AcDbLine
 10
40.7386941697243
 20
10.92638024137727
 30
0.0
 11
40.7386941697243
 21
10.62638024137727
 31
0.0
  0
LINE
  5
30C
330
1F
100
AcDbEntity
  8
0
100
AcDbLine
 10
41.6386941697243
 20
11.22638024137727
 30
0.0
 11
41.6386941697243
 21
10.92638024137727
 31
0.0
  0
LINE
  5
30D
330
1F
100
AcDbEntity
  8
0
100
AcDbLine
 10
41.6386941697243
 20
11.22638024137727
 30
0.0
 11
41.03869416972431
 21
11.22638024137727
 31
0.0
  0
LINE
  5
30E
330
1F
100
AcDbEntity
  8
0
100
AcDbLine
 10
41.03869416972431
 20
11.22638024137727
 30
0.0
 11
41.03869416972431
 21
10.92638024137727
 31
0.0
  0
LINE
  5
30F
330
1F
100
AcDbEntity
  8
0
100
AcDbLine
 10
41.03869416972431
 20
11.22638024137727
 30
0.0
 11
40.4386941697243
 21
11.22638024137727
 31
0.0
  0
LINE
  5
310
330
1F
100
AcDbEntity
  8
0
100
AcDbLine
 10
40.4386941697243
 20
11.22638024137727
 30
0.0
 11
40.4386941697243
 21
10.92638024137727
 31
0.0
  0
LINE
  5
311
330
1F
100
AcDbEntity
  8
0
100
AcDbLine
 10
41.6386941697243
 20
10.92638024137727
 30
0.0
 11
41.03869416972431
 21
10.92638024137727
 31
0.0
  0
LINE
  5
312
330
1F
100
AcDbEntity
  8
0
100
AcDbLine
 10
41.03869416972431
 20
10.92638024137727
 30
0.0
 11
40.4386941697243
 21
10.92638024137727
 31
0.0
  0
LINE
  5
313
330
1F
100
AcDbEntity
  8
0
100
AcDbLine
 10
42.23869416972431
 20
11.22638024137727
 30
0.0
 11
42.23869416972431
 21
10.92638024137727
 31
0.0
  0
LINE
  5
314
330
1F
100
AcDbEntity
  8
0
100
AcDbLine
 10
42.23869416972431
 20
11.22638024137727
 30
0.0
 11
41.6386941697243
 21
11.22638024137727
 31
0.0
  0
LINE
  5
315
330
1F
100
AcDbEntity
  8
0
100
AcDbLine
 10
42.53869416972431
 20
11.22638024137727
 30
0.0
 11
42.23869416972431
 21
11.22638024137727
 31
0.0
  0
LINE
  5
316
330
1F
100
AcDbEntity
  8
0
100
AcDbLine
 10
42.53869416972431
 20
11.52638024137727
 30
0.0
 11
41.93869416972431
 21
11.52638024137727
 31
0.0
  0
LINE
  5
317
330
1F
100
AcDbEntity
  8
0
100
AcDbLine
 10
41.93869416972431
 20
11.52638024137727
 30
0.0
 11
41.93869416972431
 21
11.22638024137727
 31
0.0
  0
LINE
  5
318
330
1F
100
AcDbEntity
  8
0
100
AcDbLine
 10
41.93869416972431
 20
11.52638024137727
 30
0.0
 11
41.33869416972431
 21
11.52638024137727
 31
0.0
  0
LINE
  5
319
330
1F
100
AcDbEntity
  8
0
100
AcDbLine
 10
41.33869416972431
 20
11.52638024137727
 30
0.0
 11
41.33869416972431
 21
11.22638024137727
 31
0.0
  0
LINE
  5
31A
330
1F
100
AcDbEntity
  8
0
100
AcDbLine
 10
41.33869416972431
 20
11.52638024137727
 30
0.0
 11
40.7386941697243
 21
11.52638024137727
 31
0.0
  0
LINE
  5
31B
330
1F
100
AcDbEntity
  8
0
100
AcDbLine
 10
40.7386941697243
 20
11.52638024137727
 30
0.0
 11
40.7386941697243
 21
11.22638024137727
 31
0.0
  0
LINE
  5
31C
330
1F
100
AcDbEntity
  8
0
100
AcDbLine
 10
41.63869416972431
 20
11.82638024137727
 30
0.0
 11
41.63869416972431
 21
11.52638024137727
 31
0.0
  0
LINE
  5
31D
330
1F
100
AcDbEntity
  8
0
100
AcDbLine
 10
41.63869416972431
 20
11.82638024137727
 30
0.0
 11
41.03869416972432
 21
11.82638024137727
 31
0.0
  0
LINE
  5
31E
330
1F
100
AcDbEntity
  8
0
100
AcDbLine
 10
41.03869416972432
 20
11.82638024137727
 30
0.0
 11
41.03869416972432
 21
11.52638024137727
 31
0.0
  0
LINE
  5
31F
330
1F
100
AcDbEntity
  8
0
100
AcDbLine
 10
41.03869416972432
 20
11.82638024137727
 30
0.0
 11
40.43869416972431
 21
11.82638024137727
 31
0.0
  0
LINE
  5
320
330
1F
100
AcDbEntity
  8
0
100
AcDbLine
 10
40.43869416972431
 20
11.82638024137727
 30
0.0
 11
40.43869416972431
 21
11.52638024137727
 31
0.0
  0
LINE
  5
321
330
1F
100
AcDbEntity
  8
0
100
AcDbLine
 10
41.63869416972431
 20
11.52638024137727
 30
0.0
 11
41.03869416972432
 21
11.52638024137727
 31
0.0
  0
LINE
  5
322
330
1F
100
AcDbEntity
  8
0
100
AcDbLine
 10
41.03869416972432
 20
11.52638024137727
 30
0.0
 11
40.43869416972431
 21
11.52638024137727
 31
0.0
  0
LINE
  5
323
330
1F
100
AcDbEntity
  8
0
100
AcDbLine
 10
42.23869416972432
 20
11.82638024137727
 30
0.0
 11
42.23869416972432
 21
11.52638024137727
 31
0.0
  0
LINE
  5
324
330
1F
100
AcDbEntity
  8
0
100
AcDbLine
 10
42.23869416972432
 20
11.82638024137727
 30
0.0
 11
41.63869416972431
 21
11.82638024137727
 31
0.0
  0
LINE
  5
325
330
1F
100
AcDbEntity
  8
0
100
AcDbLine
 10
42.53869416972432
 20
11.82638024137727
 30
0.0
 11
42.23869416972432
 21
11.82638024137727
 31
0.0
  0
LINE
  5
326
330
1F
100
AcDbEntity
  8
0
100
AcDbLine
 10
42.53869416972432
 20
12.12638024137727
 30
0.0
 11
41.93869416972431
 21
12.12638024137727
 31
0.0
  0
LINE
  5
327
330
1F
100
AcDbEntity
  8
0
100
AcDbLine
 10
41.93869416972431
 20
12.12638024137727
 30
0.0
 11
41.93869416972431
 21
11.82638024137727
 31
0.0
  0
LINE
  5
328
330
1F
100
AcDbEntity
  8
0
100
AcDbLine
 10
41.93869416972431
 20
12.12638024137727
 30
0.0
 11
41.33869416972432
 21
12.12638024137727
 31
0.0
  0
LINE
  5
329
330
1F
100
AcDbEntity
  8
0
100
AcDbLine
 10
41.33869416972432
 20
12.12638024137727
 30
0.0
 11
41.33869416972432
 21
11.82638024137727
 31
0.0
  0
LINE
  5
32A
330
1F
100
AcDbEntity
  8
0
100
AcDbLine
 10
41.33869416972432
 20
12.12638024137727
 30
0.0
 11
40.73869416972431
 21
12.12638024137727
 31
0.0
  0
LINE
  5
32B
330
1F
100
AcDbEntity
  8
0
100
AcDbLine
 10
40.73869416972431
 20
12.12638024137727
 30
0.0
 11
40.73869416972431
 21
11.82638024137727
 31
0.0
  0
LINE
  5
32C
330
1F
100
AcDbEntity
  8
0
100
AcDbLine
 10
41.63869416972432
 20
12.42638024137727
 30
0.0
 11
41.63869416972432
 21
12.12638024137727
 31
0.0
  0
LINE
  5
32D
330
1F
100
AcDbEntity
  8
0
100
AcDbLine
 10
41.63869416972432
 20
12.42638024137727
 30
0.0
 11
41.03869416972432
 21
12.42638024137727
 31
0.0
  0
LINE
  5
32E
330
1F
100
AcDbEntity
  8
0
100
AcDbLine
 10
41.03869416972432
 20
12.42638024137727
 30
0.0
 11
41.03869416972432
 21
12.12638024137727
 31
0.0
  0
LINE
  5
32F
330
1F
100
AcDbEntity
  8
0
100
AcDbLine
 10
41.03869416972432
 20
12.42638024137727
 30
0.0
 11
40.43869416972432
 21
12.42638024137727
 31
0.0
  0
LINE
  5
330
330
1F
100
AcDbEntity
  8
0
100
AcDbLine
 10
40.43869416972432
 20
12.42638024137727
 30
0.0
 11
40.43869416972432
 21
12.12638024137727
 31
0.0
  0
LINE
  5
331
330
1F
100
AcDbEntity
  8
0
100
AcDbLine
 10
41.63869416972432
 20
12.12638024137727
 30
0.0
 11
41.03869416972432
 21
12.12638024137727
 31
0.0
  0
LINE
  5
332
330
1F
100
AcDbEntity
  8
0
100
AcDbLine
 10
41.03869416972432
 20
12.12638024137727
 30
0.0
 11
40.43869416972432
 21
12.12638024137727
 31
0.0
  0
LINE
  5
333
330
1F
100
AcDbEntity
  8
0
100
AcDbLine
 10
42.23869416972433
 20
12.42638024137727
 30
0.0
 11
42.23869416972433
 21
12.12638024137727
 31
0.0
  0
LINE
  5
334
330
1F
100
AcDbEntity
  8
0
100
AcDbLine
 10
42.23869416972433
 20
12.42638024137727
 30
0.0
 11
41.63869416972432
 21
12.42638024137727
 31
0.0
  0
LINE
  5
335
330
1F
100
AcDbEntity
  8
0
100
AcDbLine
 10
42.53869416972433
 20
12.42638024137727
 30
0.0
 11
42.23869416972433
 21
12.42638024137727
 31
0.0
  0
LINE
  5
336
330
1F
100
AcDbEntity
  8
0
100
AcDbLine
 10
42.53869416972429
 20
12.72638024137727
 30
0.0
 11
41.93869416972429
 21
12.72638024137727
 31
0.0
  0
LINE
  5
337
330
1F
100
AcDbEntity
  8
0
100
AcDbLine
 10
41.93869416972429
 20
12.72638024137727
 30
0.0
 11
41.93869416972429
 21
12.42638024137727
 31
0.0
  0
LINE
  5
338
330
1F
100
AcDbEntity
  8
0
100
AcDbLine
 10
41.93869416972429
 20
12.72638024137727
 30
0.0
 11
41.33869416972429
 21
12.72638024137727
 31
0.0
  0
LINE
  5
339
330
1F
100
AcDbEntity
  8
0
100
AcDbLine
 10
41.33869416972429
 20
12.72638024137727
 30
0.0
 11
41.33869416972429
 21
12.42638024137727
 31
0.0
  0
LINE
  5
33A
330
1F
100
AcDbEntity
  8
0
100
AcDbLine
 10
41.33869416972429
 20
12.72638024137727
 30
0.0
 11
40.73869416972429
 21
12.72638024137727
 31
0.0
  0
LINE
  5
33B
330
1F
100
AcDbEntity
  8
0
100
AcDbLine
 10
40.73869416972429
 20
12.72638024137727
 30
0.0
 11
40.73869416972429
 21
12.42638024137727
 31
0.0
  0
LINE
  5
33C
330
1F
100
AcDbEntity
  8
0
100
AcDbLine
 10
41.63869416972429
 20
13.02638024137727
 30
0.0
 11
41.63869416972429
 21
12.72638024137727
 31
0.0
  0
LINE
  5
33D
330
1F
100
AcDbEntity
  8
0
100
AcDbLine
 10
41.63869416972429
 20
13.02638024137727
 30
0.0
 11
41.03869416972429
 21
13.02638024137727
 31
0.0
  0
LINE
  5
33E
330
1F
100
AcDbEntity
  8
0
100
AcDbLine
 10
41.03869416972429
 20
13.02638024137727
 30
0.0
 11
41.03869416972429
 21
12.72638024137727
 31
0.0
  0
LINE
  5
33F
330
1F
100
AcDbEntity
  8
0
100
AcDbLine
 10
41.03869416972429
 20
13.02638024137727
 30
0.0
 11
40.43869416972429
 21
13.02638024137727
 31
0.0
  0
LINE
  5
340
330
1F
100
AcDbEntity
  8
0
100
AcDbLine
 10
40.43869416972429
 20
13.02638024137727
 30
0.0
 11
40.43869416972429
 21
12.72638024137727
 31
0.0
  0
LINE
  5
341
330
1F
100
AcDbEntity
  8
0
100
AcDbLine
 10
41.63869416972429
 20
12.72638024137727
 30
0.0
 11
41.03869416972429
 21
12.72638024137727
 31
0.0
  0
LINE
  5
342
330
1F
100
AcDbEntity
  8
0
100
AcDbLine
 10
41.03869416972429
 20
12.72638024137727
 30
0.0
 11
40.43869416972429
 21
12.72638024137727
 31
0.0
  0
LINE
  5
343
330
1F
100
AcDbEntity
  8
0
100
AcDbLine
 10
42.23869416972429
 20
13.02638024137727
 30
0.0
 11
42.23869416972429
 21
12.72638024137727
 31
0.0
  0
LINE
  5
344
330
1F
100
AcDbEntity
  8
0
100
AcDbLine
 10
42.23869416972429
 20
13.02638024137727
 30
0.0
 11
41.63869416972429
 21
13.02638024137727
 31
0.0
  0
LINE
  5
345
330
1F
100
AcDbEntity
  8
0
100
AcDbLine
 10
42.5386941697243
 20
13.02638024137727
 30
0.0
 11
42.23869416972429
 21
13.02638024137727
 31
0.0
  0
LINE
  5
346
330
1F
100
AcDbEntity
  8
0
100
AcDbLine
 10
42.53869416972428
 20
13.32638024137727
 30
0.0
 11
41.93869416972428
 21
13.32638024137727
 31
0.0
  0
LINE
  5
347
330
1F
100
AcDbEntity
  8
0
100
AcDbLine
 10
41.93869416972428
 20
13.32638024137727
 30
0.0
 11
41.93869416972428
 21
13.02638024137727
 31
0.0
  0
LINE
  5
348
330
1F
100
AcDbEntity
  8
0
100
AcDbLine
 10
41.93869416972428
 20
13.32638024137727
 30
0.0
 11
41.33869416972427
 21
13.32638024137727
 31
0.0
  0
LINE
  5
349
330
1F
100
AcDbEntity
  8
0
100
AcDbLine
 10
41.33869416972427
 20
13.32638024137727
 30
0.0
 11
41.33869416972427
 21
13.02638024137727
 31
0.0
  0
LINE
  5
34A
330
1F
100
AcDbEntity
  8
0
100
AcDbLine
 10
41.33869416972427
 20
13.32638024137727
 30
0.0
 11
40.73869416972427
 21
13.32638024137727
 31
0.0
  0
LINE
  5
34B
330
1F
100
AcDbEntity
  8
0
100
AcDbLine
 10
40.73869416972427
 20
13.32638024137727
 30
0.0
 11
40.73869416972427
 21
13.02638024137727
 31
0.0
  0
LINE
  5
34C
330
1F
100
AcDbEntity
  8
0
100
AcDbLine
 10
41.63869416972428
 20
13.62638024137727
 30
0.0
 11
41.63869416972428
 21
13.32638024137727
 31
0.0
  0
LINE
  5
34D
330
1F
100
AcDbEntity
  8
0
100
AcDbLine
 10
41.63869416972428
 20
13.62638024137727
 30
0.0
 11
41.03869416972428
 21
13.62638024137727
 31
0.0
  0
LINE
  5
34E
330
1F
100
AcDbEntity
  8
0
100
AcDbLine
 10
41.03869416972428
 20
13.62638024137727
 30
0.0
 11
41.03869416972428
 21
13.32638024137727
 31
0.0
  0
LINE
  5
34F
330
1F
100
AcDbEntity
  8
0
100
AcDbLine
 10
41.03869416972428
 20
13.62638024137727
 30
0.0
 11
40.43869416972428
 21
13.62638024137727
 31
0.0
  0
LINE
  5
350
330
1F
100
AcDbEntity
  8
0
100
AcDbLine
 10
40.43869416972428
 20
13.62638024137727
 30
0.0
 11
40.43869416972428
 21
13.32638024137727
 31
0.0
  0
LINE
  5
351
330
1F
100
AcDbEntity
  8
0
100
AcDbLine
 10
41.63869416972428
 20
13.32638024137727
 30
0.0
 11
41.03869416972428
 21
13.32638024137727
 31
0.0
  0
LINE
  5
352
330
1F
100
AcDbEntity
  8
0
100
AcDbLine
 10
41.03869416972428
 20
13.32638024137727
 30
0.0
 11
40.43869416972428
 21
13.32638024137727
 31
0.0
  0
LINE
  5
353
330
1F
100
AcDbEntity
  8
0
100
AcDbLine
 10
42.23869416972428
 20
13.62638024137727
 30
0.0
 11
42.23869416972428
 21
13.32638024137727
 31
0.0
  0
LINE
  5
354
330
1F
100
AcDbEntity
  8
0
100
AcDbLine
 10
42.23869416972428
 20
13.62638024137727
 30
0.0
 11
41.63869416972428
 21
13.62638024137727
 31
0.0
  0
LINE
  5
355
330
1F
100
AcDbEntity
  8
0
100
AcDbLine
 10
42.54115804258794
 20
13.62638024137727
 30
0.0
 11
42.23869416972428
 21
13.62638024137727
 31
0.0
  0
LINE
  5
356
330
1F
100
AcDbEntity
  8
0
100
AcDbLine
 10
42.57082820757825
 20
13.92638024137727
 30
0.0
 11
41.93869416972428
 21
13.92638024137727
 31
0.0
  0
LINE
  5
357
330
1F
100
AcDbEntity
  8
0
100
AcDbLine
 10
41.93869416972428
 20
13.92638024137727
 30
0.0
 11
41.93869416972428
 21
13.62638024137727
 31
0.0
  0
LINE
  5
358
330
1F
100
AcDbEntity
  8
0
100
AcDbLine
 10
41.93869416972428
 20
13.92638024137727
 30
0.0
 11
41.33869416972428
 21
13.92638024137727
 31
0.0
  0
LINE
  5
359
330
1F
100
AcDbEntity
  8
0
100
AcDbLine
 10
41.33869416972428
 20
13.92638024137727
 30
0.0
 11
41.33869416972428
 21
13.62638024137727
 31
0.0
  0
LINE
  5
35A
330
1F
100
AcDbEntity
  8
0
100
AcDbLine
 10
41.33869416972428
 20
13.92638024137727
 30
0.0
 11
40.73869416972428
 21
13.92638024137727
 31
0.0
  0
LINE
  5
35B
330
1F
100
AcDbEntity
  8
0
100
AcDbLine
 10
40.73869416972428
 20
13.92638024137727
 30
0.0
 11
40.73869416972428
 21
13.62638024137727
 31
0.0
  0
LINE
  5
35C
330
1F
100
AcDbEntity
  8
0
100
AcDbLine
 10
41.63869416972429
 20
14.22638024137727
 30
0.0
 11
41.63869416972429
 21
13.92638024137727
 31
0.0
  0
LINE
  5
35D
330
1F
100
AcDbEntity
  8
0
100
AcDbLine
 10
41.63869416972429
 20
14.22638024137727
 30
0.0
 11
41.03869416972428
 21
14.22638024137727
 31
0.0
  0
LINE
  5
35E
330
1F
100
AcDbEntity
  8
0
100
AcDbLine
 10
41.03869416972428
 20
14.22638024137727
 30
0.0
 11
41.03869416972428
 21
13.92638024137727
 31
0.0
  0
LINE
  5
35F
330
1F
100
AcDbEntity
  8
0
100
AcDbLine
 10
41.03869416972428
 20
14.22638024137727
 30
0.0
 11
40.43869416972428
 21
14.22638024137727
 31
0.0
  0
LINE
  5
361
330
1F
100
AcDbEntity
  8
0
100
AcDbLine
 10
41.63869416972429
 20
13.92638024137727
 30
0.0
 11
41.03869416972428
 21
13.92638024137727
 31
0.0
  0
LINE
  5
362
330
1F
100
AcDbEntity
  8
0
100
AcDbLine
 10
41.03869416972428
 20
13.92638024137727
 30
0.0
 11
40.43869416972428
 21
13.92638024137727
 31
0.0
  0
LINE
  5
363
330
1F
100
AcDbEntity
  8
0
100
AcDbLine
 10
42.23869416972429
 20
14.22638024137727
 30
0.0
 11
42.23869416972429
 21
13.92638024137727
 31
0.0
  0
LINE
  5
364
330
1F
100
AcDbEntity
  8
0
100
AcDbLine
 10
42.23869416972429
 20
14.22638024137727
 30
0.0
 11
41.63869416972429
 21
14.22638024137727
 31
0.0
  0
LINE
  5
365
330
1F
100
AcDbEntity
  8
0
100
AcDbLine
 10
42.53869416972429
 20
14.22638024137727
 30
0.0
 11
42.23869416972429
 21
14.22638024137727
 31
0.0
  0
LINE
  5
366
330
1F
100
AcDbEntity
  8
0
100
AcDbLine
 10
41.93869416972429
 20
14.52638024137727
 30
0.0
 11
41.93869416972429
 21
14.22638024137727
 31
0.0
  0
LINE
  5
367
330
1F
100
AcDbEntity
  8
0
100
AcDbLine
 10
41.93869416972429
 20
14.52638024137727
 30
0.0
 11
41.33869416972429
 21
14.52638024137727
 31
0.0
  0
LINE
  5
368
330
1F
100
AcDbEntity
  8
0
100
AcDbLine
 10
41.33869416972429
 20
14.52638024137727
 30
0.0
 11
41.33869416972429
 21
14.22638024137727
 31
0.0
  0
LINE
  5
369
330
1F
100
AcDbEntity
  8
0
100
AcDbLine
 10
41.33869416972429
 20
14.52638024137727
 30
0.0
 11
40.73869416972429
 21
14.52638024137727
 31
0.0
  0
LINE
  5
36A
330
1F
100
AcDbEntity
  8
0
100
AcDbLine
 10
40.73869416972429
 20
14.52638024137727
 30
0.0
 11
40.73869416972429
 21
14.22638024137727
 31
0.0
  0
LINE
  5
36B
330
1F
100
AcDbEntity
  8
0
100
AcDbLine
 10
41.63869416972429
 20
14.82638024137727
 30
0.0
 11
41.63869416972429
 21
14.52638024137727
 31
0.0
  0
LINE
  5
36C
330
1F
100
AcDbEntity
  8
0
100
AcDbLine
 10
41.63869416972429
 20
14.82638024137727
 30
0.0
 11
41.03869416972429
 21
14.82638024137727
 31
0.0
  0
LINE
  5
36D
330
1F
100
AcDbEntity
  8
0
100
AcDbLine
 10
41.03869416972429
 20
14.82638024137727
 30
0.0
 11
41.03869416972429
 21
14.52638024137727
 31
0.0
  0
LINE
  5
36E
330
1F
100
AcDbEntity
  8
0
100
AcDbLine
 10
41.03869416972429
 20
14.82638024137727
 30
0.0
 11
40.43869416972429
 21
14.82638024137727
 31
0.0
  0
LINE
  5
36F
330
1F
100
AcDbEntity
  8
0
100
AcDbLine
 10
40.43869416972429
 20
14.82638024137727
 30
0.0
 11
40.43869416972429
 21
14.52638024137727
 31
0.0
  0
LINE
  5
370
330
1F
100
AcDbEntity
  8
0
100
AcDbLine
 10
41.63869416972429
 20
14.52638024137727
 30
0.0
 11
41.03869416972429
 21
14.52638024137727
 31
0.0
  0
LINE
  5
371
330
1F
100
AcDbEntity
  8
0
100
AcDbLine
 10
41.03869416972429
 20
14.52638024137727
 30
0.0
 11
40.43869416972429
 21
14.52638024137727
 31
0.0
  0
LINE
  5
372
330
1F
100
AcDbEntity
  8
0
100
AcDbLine
 10
42.23869416972429
 20
14.82638024137727
 30
0.0
 11
41.63869416972429
 21
14.82638024137727
 31
0.0
  0
LINE
  5
373
330
1F
100
AcDbEntity
  8
0
100
AcDbLine
 10
41.9386941697243
 20
15.12638024137727
 30
0.0
 11
41.9386941697243
 21
14.82638024137727
 31
0.0
  0
LINE
  5
374
330
1F
100
AcDbEntity
  8
0
100
AcDbLine
 10
41.9386941697243
 20
15.12638024137727
 30
0.0
 11
41.33869416972429
 21
15.12638024137727
 31
0.0
  0
LINE
  5
375
330
1F
100
AcDbEntity
  8
0
100
AcDbLine
 10
41.33869416972429
 20
15.12638024137727
 30
0.0
 11
41.33869416972429
 21
14.82638024137727
 31
0.0
  0
LINE
  5
376
330
1F
100
AcDbEntity
  8
0
100
AcDbLine
 10
41.33869416972429
 20
15.12638024137727
 30
0.0
 11
40.7386941697243
 21
15.12638024137727
 31
0.0
  0
LINE
  5
377
330
1F
100
AcDbEntity
  8
0
100
AcDbLine
 10
40.7386941697243
 20
15.12638024137727
 30
0.0
 11
40.7386941697243
 21
14.82638024137727
 31
0.0
  0
LINE
  5
378
330
1F
100
AcDbEntity
  8
0
100
AcDbLine
 10
41.6386941697243
 20
15.42638024137727
 30
0.0
 11
41.6386941697243
 21
15.12638024137727
 31
0.0
  0
LINE
  5
379
330
1F
100
AcDbEntity
  8
0
100
AcDbLine
 10
41.6386941697243
 20
15.42638024137727
 30
0.0
 11
41.0386941697243
 21
15.42638024137727
 31
0.0
  0
LINE
  5
37A
330
1F
100
AcDbEntity
  8
0
100
AcDbLine
 10
41.0386941697243
 20
15.42638024137727
 30
0.0
 11
41.0386941697243
 21
15.12638024137727
 31
0.0
  0
LINE
  5
37B
330
1F
100
AcDbEntity
  8
0
100
AcDbLine
 10
41.0386941697243
 20
15.42638024137727
 30
0.0
 11
40.43869416972429
 21
15.42638024137727
 31
0.0
  0
LINE
  5
37C
330
1F
100
AcDbEntity
  8
0
100
AcDbLine
 10
40.43869416972429
 20
15.42638024137727
 30
0.0
 11
40.43869416972429
 21
15.12638024137727
 31
0.0
  0
LINE
  5
37D
330
1F
100
AcDbEntity
  8
0
100
AcDbLine
 10
41.6386941697243
 20
15.12638024137727
 30
0.0
 11
41.0386941697243
 21
15.12638024137727
 31
0.0
  0
LINE
  5
37E
330
1F
100
AcDbEntity
  8
0
100
AcDbLine
 10
41.0386941697243
 20
15.12638024137727
 30
0.0
 11
40.43869416972429
 21
15.12638024137727
 31
0.0
  0
LINE
  5
37F
330
1F
100
AcDbEntity
  8
0
100
AcDbLine
 10
42.2386941697243
 20
15.42638024137727
 30
0.0
 11
41.6386941697243
 21
15.42638024137727
 31
0.0
  0
LINE
  5
380
330
1F
100
AcDbEntity
  8
0
100
AcDbLine
 10
41.9386941697243
 20
15.72638024137727
 30
0.0
 11
41.9386941697243
 21
15.42638024137727
 31
0.0
  0
LINE
  5
381
330
1F
100
AcDbEntity
  8
0
100
AcDbLine
 10
41.9386941697243
 20
15.72638024137727
 30
0.0
 11
41.33869416972429
 21
15.72638024137727
 31
0.0
  0
LINE
  5
382
330
1F
100
AcDbEntity
  8
0
100
AcDbLine
 10
41.33869416972429
 20
15.72638024137727
 30
0.0
 11
41.33869416972429
 21
15.42638024137727
 31
0.0
  0
LINE
  5
383
330
1F
100
AcDbEntity
  8
0
100
AcDbLine
 10
41.33869416972429
 20
15.72638024137727
 30
0.0
 11
40.7386941697243
 21
15.72638024137727
 31
0.0
  0
LINE
  5
384
330
1F
100
AcDbEntity
  8
0
100
AcDbLine
 10
40.7386941697243
 20
15.72638024137727
 30
0.0
 11
40.7386941697243
 21
15.42638024137727
 31
0.0
  0
LINE
  5
385
330
1F
100
AcDbEntity
  8
0
100
AcDbLine
 10
41.6386941697243
 20
16.02638024137727
 30
0.0
 11
41.6386941697243
 21
15.72638024137727
 31
0.0
  0
LINE
  5
386
330
1F
100
AcDbEntity
  8
0
100
AcDbLine
 10
41.6386941697243
 20
16.02638024137727
 30
0.0
 11
41.0386941697243
 21
16.02638024137727
 31
0.0
  0
LINE
  5
387
330
1F
100
AcDbEntity
  8
0
100
AcDbLine
 10
41.0386941697243
 20
16.02638024137727
 30
0.0
 11
41.0386941697243
 21
15.72638024137727
 31
0.0
  0
LINE
  5
388
330
1F
100
AcDbEntity
  8
0
100
AcDbLine
 10
41.0386941697243
 20
16.02638024137727
 30
0.0
 11
40.43869416972429
 21
16.02638024137727
 31
0.0
  0
LINE
  5
389
330
1F
100
AcDbEntity
  8
0
100
AcDbLine
 10
40.43869416972429
 20
16.02638024137727
 30
0.0
 11
40.43869416972429
 21
15.72638024137727
 31
0.0
  0
LINE
  5
38A
330
1F
100
AcDbEntity
  8
0
100
AcDbLine
 10
41.6386941697243
 20
15.72638024137727
 30
0.0
 11
41.0386941697243
 21
15.72638024137727
 31
0.0
  0
LINE
  5
38B
330
1F
100
AcDbEntity
  8
0
100
AcDbLine
 10
41.0386941697243
 20
15.72638024137727
 30
0.0
 11
40.43869416972429
 21
15.72638024137727
 31
0.0
  0
LINE
  5
38C
330
1F
100
AcDbEntity
  8
0
100
AcDbLine
 10
42.2386941697243
 20
16.02638024137727
 30
0.0
 11
41.6386941697243
 21
16.02638024137727
 31
0.0
  0
LINE
  5
38D
330
1F
100
AcDbEntity
  8
0
100
AcDbLine
 10
41.9386941697243
 20
16.32638024137727
 30
0.0
 11
41.9386941697243
 21
16.02638024137727
 31
0.0
  0
LINE
  5
38E
330
1F
100
AcDbEntity
  8
0
100
AcDbLine
 10
41.9386941697243
 20
16.32638024137727
 30
0.0
 11
41.33869416972429
 21
16.32638024137727
 31
0.0
  0
LINE
  5
38F
330
1F
100
AcDbEntity
  8
0
100
AcDbLine
 10
41.33869416972429
 20
16.32638024137727
 30
0.0
 11
41.33869416972429
 21
16.02638024137727
 31
0.0
  0
LINE
  5
390
330
1F
100
AcDbEntity
  8
0
100
AcDbLine
 10
41.33869416972429
 20
16.32638024137727
 30
0.0
 11
40.7386941697243
 21
16.32638024137727
 31
0.0
  0
LINE
  5
391
330
1F
100
AcDbEntity
  8
0
100
AcDbLine
 10
40.7386941697243
 20
16.32638024137727
 30
0.0
 11
40.7386941697243
 21
16.02638024137727
 31
0.0
  0
LINE
  5
392
330
1F
100
AcDbEntity
  8
0
100
AcDbLine
 10
41.6386941697243
 20
16.62638024137727
 30
0.0
 11
41.6386941697243
 21
16.32638024137727
 31
0.0
  0
LINE
  5
393
330
1F
100
AcDbEntity
  8
0
100
AcDbLine
 10
41.6386941697243
 20
16.62638024137727
 30
0.0
 11
41.0386941697243
 21
16.62638024137727
 31
0.0
  0
LINE
  5
394
330
1F
100
AcDbEntity
  8
0
100
AcDbLine
 10
41.0386941697243
 20
16.62638024137727
 30
0.0
 11
41.0386941697243
 21
16.32638024137727
 31
0.0
  0
LINE
  5
395
330
1F
100
AcDbEntity
  8
0
100
AcDbLine
 10
41.0386941697243
 20
16.62638024137727
 30
0.0
 11
40.43869416972429
 21
16.62638024137727
 31
0.0
  0
LINE
  5
396
330
1F
100
AcDbEntity
  8
0
100
AcDbLine
 10
40.43869416972429
 20
16.62638024137727
 30
0.0
 11
40.43869416972429
 21
16.32638024137727
 31
0.0
  0
LINE
  5
397
330
1F
100
AcDbEntity
  8
0
100
AcDbLine
 10
41.6386941697243
 20
16.32638024137727
 30
0.0
 11
41.0386941697243
 21
16.32638024137727
 31
0.0
  0
LINE
  5
398
330
1F
100
AcDbEntity
  8
0
100
AcDbLine
 10
41.0386941697243
 20
16.32638024137727
 30
0.0
 11
40.43869416972429
 21
16.32638024137727
 31
0.0
  0
LINE
  5
399
330
1F
100
AcDbEntity
  8
0
100
AcDbLine
 10
42.2386941697243
 20
16.62638024137727
 30
0.0
 11
41.6386941697243
 21
16.62638024137727
 31
0.0
  0
LINE
  5
39A
330
1F
100
AcDbEntity
  8
0
100
AcDbLine
 10
41.9386941697243
 20
16.92638024137727
 30
0.0
 11
41.9386941697243
 21
16.62638024137727
 31
0.0
  0
LINE
  5
39B
330
1F
100
AcDbEntity
  8
0
100
AcDbLine
 10
41.9386941697243
 20
16.92638024137727
 30
0.0
 11
41.33869416972429
 21
16.92638024137727
 31
0.0
  0
LINE
  5
39C
330
1F
100
AcDbEntity
  8
0
100
AcDbLine
 10
41.33869416972429
 20
16.92638024137727
 30
0.0
 11
41.33869416972429
 21
16.62638024137727
 31
0.0
  0
LINE
  5
39D
330
1F
100
AcDbEntity
  8
0
100
AcDbLine
 10
41.33869416972429
 20
16.92638024137727
 30
0.0
 11
40.7386941697243
 21
16.92638024137727
 31
0.0
  0
LINE
  5
39E
330
1F
100
AcDbEntity
  8
0
100
AcDbLine
 10
40.7386941697243
 20
16.92638024137727
 30
0.0
 11
40.7386941697243
 21
16.62638024137727
 31
0.0
  0
LINE
  5
39F
330
1F
100
AcDbEntity
  8
0
100
AcDbLine
 10
41.6386941697243
 20
17.22638024137728
 30
0.0
 11
41.6386941697243
 21
16.92638024137727
 31
0.0
  0
LINE
  5
3A0
330
1F
100
AcDbEntity
  8
0
100
AcDbLine
 10
41.6386941697243
 20
17.22638024137728
 30
0.0
 11
41.0386941697243
 21
17.22638024137728
 31
0.0
  0
LINE
  5
3A1
330
1F
100
AcDbEntity
  8
0
100
AcDbLine
 10
41.0386941697243
 20
17.22638024137728
 30
0.0
 11
41.0386941697243
 21
16.92638024137727
 31
0.0
  0
LINE
  5
3A2
330
1F
100
AcDbEntity
  8
0
100
AcDbLine
 10
41.0386941697243
 20
17.22638024137728
 30
0.0
 11
40.43869416972429
 21
17.22638024137728
 31
0.0
  0
LINE
  5
3A3
330
1F
100
AcDbEntity
  8
0
100
AcDbLine
 10
40.43869416972429
 20
17.22638024137728
 30
0.0
 11
40.43869416972429
 21
16.92638024137727
 31
0.0
  0
LINE
  5
3A4
330
1F
100
AcDbEntity
  8
0
100
AcDbLine
 10
41.6386941697243
 20
16.92638024137727
 30
0.0
 11
41.0386941697243
 21
16.92638024137727
 31
0.0
  0
LINE
  5
3A5
330
1F
100
AcDbEntity
  8
0
100
AcDbLine
 10
41.0386941697243
 20
16.92638024137727
 30
0.0
 11
40.43869416972429
 21
16.92638024137727
 31
0.0
  0
LINE
  5
3A6
330
1F
100
AcDbEntity
  8
0
100
AcDbLine
 10
42.2386941697243
 20
17.22638024137728
 30
0.0
 11
41.6386941697243
 21
17.22638024137728
 31
0.0
  0
LINE
  5
3AA
330
1F
100
AcDbEntity
  8
0
100
AcDbLine
 10
42.2386941697243
 20
17.22638024137728
 30
0.0
 11
42.23869416972431
 21
16.92638024137727
 31
0.0
  0
LINE
  5
3AB
330
1F
100
AcDbEntity
  8
0
100
AcDbLine
 10
42.23869416972431
 20
16.92638024137727
 30
0.0
 11
41.9386941697243
 21
16.92638024137727
 31
0.0
  0
LINE
  5
3B4
330
1F
100
AcDbEntity
  8
0
100
AcDbLine
 10
42.23869416972431
 20
15.12638024137727
 30
0.0
 11
42.2386941697243
 21
15.42638024137727
 31
0.0
  0
LINE
  5
3B5
330
1F
100
AcDbEntity
  8
0
100
AcDbLine
 10
42.2386941697243
 20
15.72638024137727
 30
0.0
 11
42.23869416972431
 21
16.02638024137727
 31
0.0
  0
LINE
  5
3B6
330
1F
100
AcDbEntity
  8
0
100
AcDbLine
 10
42.23869416972431
 20
16.32638024137727
 30
0.0
 11
42.23869416972431
 21
16.62638024137727
 31
0.0
  0
LINE
  5
3B7
330
1F
100
AcDbEntity
  8
0
100
AcDbLine
 10
42.23869416972431
 20
16.32638024137727
 30
0.0
 11
41.9386941697243
 21
16.32638024137727
 31
0.0
  0
LINE
  5
3B8
330
1F
100
AcDbEntity
  8
0
100
AcDbLine
 10
42.2386941697243
 20
15.72638024137727
 30
0.0
 11
41.9386941697243
 21
15.72638024137727
 31
0.0
  0
LINE
  5
3B9
330
1F
100
AcDbEntity
  8
0
100
AcDbLine
 10
42.23869416972431
 20
15.12638024137727
 30
0.0
 11
41.9386941697243
 21
15.12638024137727
 31
0.0
  0
LINE
  5
3BA
330
1F
100
AcDbEntity
  8
0
100
AcDbLine
 10
42.23869416972431
 20
14.52638024137726
 30
0.0
 11
42.23869416972431
 21
14.82638024137727
 31
0.0
  0
LINE
  5
3BB
330
1F
100
AcDbEntity
  8
0
100
AcDbLine
 10
42.5386941697243
 20
10.62638024137727
 30
0.0
 11
42.53869416972431
 21
10.92638024137727
 31
0.0
  0
LINE
  5
3BC
330
1F
100
AcDbEntity
  8
0
100
AcDbLine
 10
42.53869416972431
 20
11.22638024137727
 30
0.0
 11
42.53869416972431
 21
11.52638024137727
 31
0.0
  0
LINE
  5
3BD
330
1F
100
AcDbEntity
  8
0
100
AcDbLine
 10
42.53869416972432
 20
11.82638024137727
 30
0.0
 11
42.53869416972432
 21
12.12638024137727
 31
0.0
  0
LINE
  5
3BE
330
1F
100
AcDbEntity
  8
0
100
AcDbLine
 10
42.53869416972433
 20
12.42638024137727
 30
0.0
 11
42.53869416972429
 21
12.72638024137727
 31
0.0
  0
LINE
  5
3BF
330
1F
100
AcDbEntity
  8
0
100
AcDbLine
 10
42.5386941697243
 20
13.02638024137727
 30
0.0
 11
42.53869416972428
 21
13.32638024137727
 31
0.0
  0
LINE
  5
3C0
330
1F
100
AcDbEntity
  8
0
100
AcDbLine
 10
42.8386941697243
 20
10.32638024137727
 30
0.0
 11
42.5386941697243
 21
10.32638024137727
 31
0.0
  0
LINE
  5
3C1
330
1F
100
AcDbEntity
  8
0
100
AcDbLine
 10
42.8386941697243
 20
10.62638024137727
 30
0.0
 11
42.2386941697243
 21
10.62638024137727
 31
0.0
  0
LINE
  5
3C2
330
1F
100
AcDbEntity
  8
0
100
AcDbLine
 10
42.8386941697243
 20
10.32638024137727
 30
0.0
 11
42.83869416972431
 21
10.62638024137727
 31
0.0
  0
LINE
  5
3C3
330
1F
100
AcDbEntity
  8
0
100
AcDbLine
 10
42.8386941697243
 20
10.32638024137727
 30
0.0
 11
42.2386941697243
 21
10.32638024137727
 31
0.0
  0
LINE
  5
3C4
330
1F
100
AcDbEntity
  8
0
100
AcDbLine
 10
42.83869416972431
 20
10.92638024137727
 30
0.0
 11
42.5386941697243
 21
10.92638024137727
 31
0.0
  0
LINE
  5
3C5
330
1F
100
AcDbEntity
  8
0
100
AcDbLine
 10
42.83869416972431
 20
11.22638024137727
 30
0.0
 11
42.23869416972431
 21
11.22638024137727
 31
0.0
  0
LINE
  5
3C6
330
1F
100
AcDbEntity
  8
0
100
AcDbLine
 10
42.83869416972431
 20
10.92638024137727
 30
0.0
 11
42.83869416972431
 21
11.22638024137727
 31
0.0
  0
LINE
  5
3C7
330
1F
100
AcDbEntity
  8
0
100
AcDbLine
 10
42.83869416972431
 20
10.92638024137727
 30
0.0
 11
42.23869416972431
 21
10.92638024137727
 31
0.0
  0
LINE
  5
3C8
330
1F
100
AcDbEntity
  8
0
100
AcDbLine
 10
42.8386941697243
 20
11.52638024137727
 30
0.0
 11
42.5386941697243
 21
11.52638024137727
 31
0.0
  0
LINE
  5
3C9
330
1F
100
AcDbEntity
  8
0
100
AcDbLine
 10
42.8386941697243
 20
11.82638024137727
 30
0.0
 11
42.2386941697243
 21
11.82638024137727
 31
0.0
  0
LINE
  5
3CA
330
1F
100
AcDbEntity
  8
0
100
AcDbLine
 10
42.8386941697243
 20
11.52638024137727
 30
0.0
 11
42.83869416972431
 21
11.82638024137727
 31
0.0
  0
LINE
  5
3CB
330
1F
100
AcDbEntity
  8
0
100
AcDbLine
 10
42.8386941697243
 20
11.52638024137727
 30
0.0
 11
42.2386941697243
 21
11.52638024137727
 31
0.0
  0
LINE
  5
3CC
330
1F
100
AcDbEntity
  8
0
100
AcDbLine
 10
42.83869416972432
 20
12.12638024137727
 30
0.0
 11
42.53869416972432
 21
12.12638024137727
 31
0.0
  0
LINE
  5
3CD
330
1F
100
AcDbEntity
  8
0
100
AcDbLine
 10
42.83869416972432
 20
12.42638024137727
 30
0.0
 11
42.23869416972433
 21
12.42638024137727
 31
0.0
  0
LINE
  5
3CE
330
1F
100
AcDbEntity
  8
0
100
AcDbLine
 10
42.83869416972432
 20
12.12638024137727
 30
0.0
 11
42.83869416972433
 21
12.42638024137727
 31
0.0
  0
LINE
  5
3CF
330
1F
100
AcDbEntity
  8
0
100
AcDbLine
 10
42.83869416972432
 20
12.12638024137727
 30
0.0
 11
42.23869416972433
 21
12.12638024137727
 31
0.0
  0
LINE
  5
3D0
330
1F
100
AcDbEntity
  8
0
100
AcDbLine
 10
42.8386941697243
 20
12.72638024137727
 30
0.0
 11
42.5386941697243
 21
12.72638024137727
 31
0.0
  0
LINE
  5
3D1
330
1F
100
AcDbEntity
  8
0
100
AcDbLine
 10
42.8386941697243
 20
13.02638024137727
 30
0.0
 11
42.2386941697243
 21
13.02638024137727
 31
0.0
  0
LINE
  5
3D2
330
1F
100
AcDbEntity
  8
0
100
AcDbLine
 10
42.8386941697243
 20
12.72638024137727
 30
0.0
 11
42.83869416972431
 21
13.02638024137727
 31
0.0
  0
LINE
  5
3D3
330
1F
100
AcDbEntity
  8
0
100
AcDbLine
 10
42.8386941697243
 20
12.72638024137727
 30
0.0
 11
42.2386941697243
 21
12.72638024137727
 31
0.0
  0
LINE
  5
3D4
330
1F
100
AcDbEntity
  8
0
100
AcDbLine
 10
42.83869416972431
 20
13.32638024137727
 30
0.0
 11
42.5386941697243
 21
13.32638024137727
 31
0.0
  0
LINE
  5
3D5
330
1F
100
AcDbEntity
  8
0
100
AcDbLine
 10
42.83869416972431
 20
13.62638024137727
 30
0.0
 11
42.23869416972431
 21
13.62638024137727
 31
0.0
  0
LINE
  5
3D6
330
1F
100
AcDbEntity
  8
0
100
AcDbLine
 10
42.83869416972431
 20
13.32638024137727
 30
0.0
 11
42.83869416972431
 21
13.62638024137728
 31
0.0
  0
LINE
  5
3D7
330
1F
100
AcDbEntity
  8
0
100
AcDbLine
 10
42.83869416972431
 20
13.32638024137727
 30
0.0
 11
42.23869416972431
 21
13.32638024137727
 31
0.0
  0
LINE
  5
3D8
330
1F
100
AcDbEntity
  8
0
100
AcDbLine
 10
42.8386941697243
 20
13.92638024137727
 30
0.0
 11
42.5386941697243
 21
13.92638024137727
 31
0.0
  0
LINE
  5
3D9
330
1F
100
AcDbEntity
  8
0
100
AcDbLine
 10
42.8386941697243
 20
14.22638024137727
 30
0.0
 11
42.2386941697243
 21
14.22638024137727
 31
0.0
  0
LINE
  5
3DA
330
1F
100
AcDbEntity
  8
0
100
AcDbLine
 10
42.8386941697243
 20
13.92638024137727
 30
0.0
 11
42.83869416972431
 21
14.22638024137727
 31
0.0
  0
LINE
  5
3DB
330
1F
100
AcDbEntity
  8
0
100
AcDbLine
 10
42.8386941697243
 20
13.92638024137727
 30
0.0
 11
42.2386941697243
 21
13.92638024137727
 31
0.0
  0
LINE
  5
3DC
330
1F
100
AcDbEntity
  8
0
100
AcDbLine
 10
42.53869416972429
 20
14.22638024137727
 30
0.0
 11
42.23869416972429
 21
14.22638024137727
 31
0.0
  0
LINE
  5
3DD
330
1F
100
AcDbEntity
  8
0
100
AcDbLine
 10
42.53869416972429
 20
14.52638024137727
 30
0.0
 11
41.93869416972429
 21
14.52638024137727
 31
0.0
  0
LINE
  5
3DE
330
1F
100
AcDbEntity
  8
0
100
AcDbLine
 10
42.53869416972429
 20
14.22638024137727
 30
0.0
 11
42.5386941697243
 21
14.52638024137727
 31
0.0
  0
LINE
  5
3DF
330
1F
100
AcDbEntity
  8
0
100
AcDbLine
 10
42.53869416972429
 20
14.22638024137727
 30
0.0
 11
41.93869416972429
 21
14.22638024137727
 31
0.0
  0
LINE
  5
3E0
330
1F
100
AcDbEntity
  8
0
100
AcDbLine
 10
42.53869416972428
 20
13.62638024137727
 30
0.0
 11
42.23869416972428
 21
13.62638024137727
 31
0.0
  0
LINE
  5
3E1
330
1F
100
AcDbEntity
  8
0
100
AcDbLine
 10
42.53869416972428
 20
13.92638024137727
 30
0.0
 11
41.93869416972428
 21
13.92638024137727
 31
0.0
  0
LINE
  5
3E2
330
1F
100
AcDbEntity
  8
0
100
AcDbLine
 10
42.53869416972428
 20
13.62638024137727
 30
0.0
 11
42.53869416972429
 21
13.92638024137727
 31
0.0
  0
LINE
  5
3E3
330
1F
100
AcDbEntity
  8
0
100
AcDbLine
 10
42.53869416972428
 20
13.62638024137727
 30
0.0
 11
41.93869416972428
 21
13.62638024137727
 31
0.0
  0
LINE
  5
3E4
330
1F
100
AcDbEntity
  8
0
100
AcDbLine
 10
42.83869416972431
 20
14.52638024137727
 30
0.0
 11
42.5386941697243
 21
14.52638024137727
 31
0.0
  0
LINE
  5
3E5
330
1F
100
AcDbEntity
  8
0
100
AcDbLine
 10
42.83869416972431
 20
14.82638024137727
 30
0.0
 11
42.23869416972431
 21
14.82638024137727
 31
0.0
  0
LINE
  5
3E6
330
1F
100
AcDbEntity
  8
0
100
AcDbLine
 10
42.83869416972431
 20
14.52638024137727
 30
0.0
 11
42.83869416972431
 21
14.82638024137727
 31
0.0
  0
LINE
  5
3E7
330
1F
100
AcDbEntity
  8
0
100
AcDbLine
 10
42.83869416972431
 20
14.52638024137727
 30
0.0
 11
42.23869416972431
 21
14.52638024137727
 31
0.0
  0
LINE
  5
3E8
330
1F
100
AcDbEntity
  8
0
100
AcDbLine
 10
42.8386941697243
 20
15.12638024137727
 30
0.0
 11
42.5386941697243
 21
15.12638024137727
 31
0.0
  0
LINE
  5
3E9
330
1F
100
AcDbEntity
  8
0
100
AcDbLine
 10
42.8386941697243
 20
15.42638024137727
 30
0.0
 11
42.2386941697243
 21
15.42638024137727
 31
0.0
  0
LINE
  5
3EA
330
1F
100
AcDbEntity
  8
0
100
AcDbLine
 10
42.8386941697243
 20
15.12638024137727
 30
0.0
 11
42.83869416972431
 21
15.42638024137727
 31
0.0
  0
LINE
  5
3EB
330
1F
100
AcDbEntity
  8
0
100
AcDbLine
 10
42.8386941697243
 20
15.12638024137727
 30
0.0
 11
42.2386941697243
 21
15.12638024137727
 31
0.0
  0
LINE
  5
3EC
330
1F
100
AcDbEntity
  8
0
100
AcDbLine
 10
42.83869416972431
 20
15.72638024137727
 30
0.0
 11
42.5386941697243
 21
15.72638024137727
 31
0.0
  0
LINE
  5
3ED
330
1F
100
AcDbEntity
  8
0
100
AcDbLine
 10
42.83869416972431
 20
16.02638024137727
 30
0.0
 11
42.23869416972431
 21
16.02638024137727
 31
0.0
  0
LINE
  5
3EE
330
1F
100
AcDbEntity
  8
0
100
AcDbLine
 10
42.83869416972431
 20
15.72638024137727
 30
0.0
 11
42.83869416972431
 21
16.02638024137727
 31
0.0
  0
LINE
  5
3EF
330
1F
100
AcDbEntity
  8
0
100
AcDbLine
 10
42.83869416972431
 20
15.72638024137727
 30
0.0
 11
42.23869416972431
 21
15.72638024137727
 31
0.0
  0
LINE
  5
3F0
330
1F
100
AcDbEntity
  8
0
100
AcDbLine
 10
42.83869416972431
 20
16.32638024137727
 30
0.0
 11
42.5386941697243
 21
16.32638024137727
 31
0.0
  0
LINE
  5
3F1
330
1F
100
AcDbEntity
  8
0
100
AcDbLine
 10
42.83869416972431
 20
16.62638024137727
 30
0.0
 11
42.23869416972431
 21
16.62638024137727
 31
0.0
  0
LINE
  5
3F2
330
1F
100
AcDbEntity
  8
0
100
AcDbLine
 10
42.83869416972431
 20
16.32638024137727
 30
0.0
 11
42.83869416972431
 21
16.62638024137727
 31
0.0
  0
LINE
  5
3F3
330
1F
100
AcDbEntity
  8
0
100
AcDbLine
 10
42.83869416972431
 20
16.32638024137727
 30
0.0
 11
42.23869416972431
 21
16.32638024137727
 31
0.0
  0
LINE
  5
3F4
330
1F
100
AcDbEntity
  8
0
100
AcDbLine
 10
42.8386941697243
 20
16.92638024137728
 30
0.0
 11
42.5386941697243
 21
16.92638024137728
 31
0.0
  0
LINE
  5
3F5
330
1F
100
AcDbEntity
  8
0
100
AcDbLine
 10
42.8386941697243
 20
17.22638024137728
 30
0.0
 11
42.2386941697243
 21
17.22638024137728
 31
0.0
  0
LINE
  5
3F6
330
1F
100
AcDbEntity
  8
0
100
AcDbLine
 10
42.8386941697243
 20
16.92638024137728
 30
0.0
 11
42.83869416972431
 21
17.22638024137728
 31
0.0
  0
LINE
  5
3F7
330
1F
100
AcDbEntity
  8
0
100
AcDbLine
 10
42.8386941697243
 20
16.92638024137728
 30
0.0
 11
42.2386941697243
 21
16.92638024137728
 31
0.0
  0
LINE
  5
3F8
330
1F
100
AcDbEntity
  8
0
100
AcDbLine
 10
42.5386941697243
 20
16.92638024137728
 30
0.0
 11
42.5386941697243
 21
16.62638024137727
 31
0.0
  0
LINE
  5
3F9
330
1F
100
AcDbEntity
  8
0
100
AcDbLine
 10
42.5386941697243
 20
16.32638024137727
 30
0.0
 11
42.53869416972431
 21
16.02638024137728
 31
0.0
  0
LINE
  5
3FA
330
1F
100
AcDbEntity
  8
0
100
AcDbLine
 10
42.5386941697243
 20
15.72638024137727
 30
0.0
 11
42.5386941697243
 21
15.42638024137727
 31
0.0
  0
LINE
  5
3FB
330
1F
100
AcDbEntity
  8
0
100
AcDbLine
 10
42.5386941697243
 20
15.12638024137727
 30
0.0
 11
42.5386941697243
 21
14.82638024137727
 31
0.0
  0
LINE
  5
3FE
330
1F
100
AcDbEntity
  8
0
100
AcDbLine
 10
38.33869416972429
 20
17.52638024137727
 30
0.0
 11
38.33869416972429
 21
17.22638024137727
 31
0.0
  0
LINE
  5
3FF
330
1F
100
AcDbEntity
  8
0
100
AcDbLine
 10
38.33869416972429
 20
17.52638024137727
 30
0.0
 11
37.73869416972428
 21
17.52638024137727
 31
0.0
  0
LINE
  5
400
330
1F
100
AcDbEntity
  8
0
100
AcDbLine
 10
38.33869416972429
 20
17.22638024137727
 30
0.0
 11
37.73869416972428
 21
17.22638024137727
 31
0.0
  0
LINE
  5
401
330
1F
100
AcDbEntity
  8
0
100
AcDbLine
 10
38.93869416972428
 20
17.52638024137727
 30
0.0
 11
38.93869416972428
 21
17.22638024137727
 31
0.0
  0
LINE
  5
402
330
1F
100
AcDbEntity
  8
0
100
AcDbLine
 10
38.93869416972428
 20
17.52638024137727
 30
0.0
 11
38.33869416972429
 21
17.52638024137727
 31
0.0
  0
LINE
  5
403
330
1F
100
AcDbEntity
  8
0
100
AcDbLine
 10
38.93869416972428
 20
17.22638024137727
 30
0.0
 11
38.33869416972429
 21
17.22638024137727
 31
0.0
  0
LINE
  5
404
330
1F
100
AcDbEntity
  8
0
100
AcDbLine
 10
39.53869416972429
 20
17.52638024137727
 30
0.0
 11
39.53869416972429
 21
17.22638024137727
 31
0.0
  0
LINE
  5
405
330
1F
100
AcDbEntity
  8
0
100
AcDbLine
 10
39.53869416972429
 20
17.52638024137727
 30
0.0
 11
38.93869416972428
 21
17.52638024137727
 31
0.0
  0
LINE
  5
406
330
1F
100
AcDbEntity
  8
0
100
AcDbLine
 10
39.53869416972429
 20
17.22638024137727
 30
0.0
 11
38.93869416972428
 21
17.22638024137727
 31
0.0
  0
LINE
  5
407
330
1F
100
AcDbEntity
  8
0
100
AcDbLine
 10
40.13869416972428
 20
17.52638024137727
 30
0.0
 11
40.13869416972428
 21
17.22638024137727
 31
0.0
  0
LINE
  5
408
330
1F
100
AcDbEntity
  8
0
100
AcDbLine
 10
40.13869416972428
 20
17.52638024137727
 30
0.0
 11
39.53869416972429
 21
17.52638024137727
 31
0.0
  0
LINE
  5
409
330
1F
100
AcDbEntity
  8
0
100
AcDbLine
 10
40.13869416972428
 20
17.22638024137727
 30
0.0
 11
39.53869416972429
 21
17.22638024137727
 31
0.0
  0
LINE
  5
40A
330
1F
100
AcDbEntity
  8
0
100
AcDbLine
 10
40.73869416972429
 20
17.52638024137727
 30
0.0
 11
40.73869416972429
 21
17.22638024137727
 31
0.0
  0
LINE
  5
40B
330
1F
100
AcDbEntity
  8
0
100
AcDbLine
 10
40.73869416972429
 20
17.52638024137727
 30
0.0
 11
40.13869416972428
 21
17.52638024137727
 31
0.0
  0
LINE
  5
40C
330
1F
100
AcDbEntity
  8
0
100
AcDbLine
 10
40.73869416972429
 20
17.22638024137727
 30
0.0
 11
40.13869416972428
 21
17.22638024137727
 31
0.0
  0
LINE
  5
40D
330
1F
100
AcDbEntity
  8
0
100
AcDbLine
 10
41.33869416972429
 20
17.52638024137727
 30
0.0
 11
41.33869416972429
 21
17.22638024137727
 31
0.0
  0
LINE
  5
40E
330
1F
100
AcDbEntity
  8
0
100
AcDbLine
 10
41.33869416972429
 20
17.52638024137727
 30
0.0
 11
40.73869416972429
 21
17.52638024137727
 31
0.0
  0
LINE
  5
40F
330
1F
100
AcDbEntity
  8
0
100
AcDbLine
 10
41.33869416972429
 20
17.22638024137727
 30
0.0
 11
40.73869416972429
 21
17.22638024137727
 31
0.0
  0
LINE
  5
410
330
1F
100
AcDbEntity
  8
0
100
AcDbLine
 10
41.93869416972429
 20
17.52638024137727
 30
0.0
 11
41.93869416972429
 21
17.22638024137727
 31
0.0
  0
LINE
  5
411
330
1F
100
AcDbEntity
  8
0
100
AcDbLine
 10
41.93869416972429
 20
17.52638024137727
 30
0.0
 11
41.33869416972429
 21
17.52638024137727
 31
0.0
  0
LINE
  5
412
330
1F
100
AcDbEntity
  8
0
100
AcDbLine
 10
41.93869416972429
 20
17.22638024137727
 30
0.0
 11
41.33869416972429
 21
17.22638024137727
 31
0.0
  0
LINE
  5
413
330
1F
100
AcDbEntity
  8
0
100
AcDbLine
 10
42.53869416972429
 20
17.52638024137727
 30
0.0
 11
42.53869416972429
 21
17.22638024137727
 31
0.0
  0
LINE
  5
414
330
1F
100
AcDbEntity
  8
0
100
AcDbLine
 10
42.53869416972429
 20
17.52638024137727
 30
0.0
 11
41.93869416972429
 21
17.52638024137727
 31
0.0
  0
LINE
  5
415
330
1F
100
AcDbEntity
  8
0
100
AcDbLine
 10
42.53869416972429
 20
17.22638024137727
 30
0.0
 11
41.93869416972429
 21
17.22638024137727
 31
0.0
  0
LINE
  5
416
330
1F
100
AcDbEntity
  8
0
100
AcDbLine
 10
38.03869416972429
 20
17.22638024137728
 30
0.0
 11
38.03869416972429
 21
16.92638024137727
 31
0.0
  0
LINE
  5
417
330
1F
100
AcDbEntity
  8
0
100
AcDbLine
 10
38.03869416972429
 20
16.92638024137728
 30
0.0
 11
37.73869416972429
 21
16.92638024137727
 31
0.0
  0
LINE
  5
418
330
1F
100
AcDbEntity
  8
0
100
AcDbLine
 10
38.63869416972429
 20
17.22638024137728
 30
0.0
 11
38.63869416972429
 21
16.92638024137728
 31
0.0
  0
LINE
  5
419
330
1F
100
AcDbEntity
  8
0
100
AcDbLine
 10
38.63869416972429
 20
16.92638024137728
 30
0.0
 11
38.03869416972429
 21
16.92638024137728
 31
0.0
  0
LINE
  5
41A
330
1F
100
AcDbEntity
  8
0
100
AcDbLine
 10
38.33869416972429
 20
16.92638024137727
 30
0.0
 11
38.33869416972429
 21
16.62638024137727
 31
0.0
  0
LINE
  5
41B
330
1F
100
AcDbEntity
  8
0
100
AcDbLine
 10
38.33869416972429
 20
16.62638024137727
 30
0.0
 11
37.73869416972429
 21
16.62638024137727
 31
0.0
  0
LINE
  5
41C
330
1F
100
AcDbEntity
  8
0
100
AcDbLine
 10
39.23869416972429
 20
17.22638024137728
 30
0.0
 11
39.23869416972429
 21
16.92638024137728
 31
0.0
  0
LINE
  5
41D
330
1F
100
AcDbEntity
  8
0
100
AcDbLine
 10
39.23869416972429
 20
16.92638024137728
 30
0.0
 11
38.63869416972429
 21
16.92638024137728
 31
0.0
  0
LINE
  5
41E
330
1F
100
AcDbEntity
  8
0
100
AcDbLine
 10
38.9386941697243
 20
16.92638024137728
 30
0.0
 11
38.9386941697243
 21
16.62638024137727
 31
0.0
  0
LINE
  5
41F
330
1F
100
AcDbEntity
  8
0
100
AcDbLine
 10
38.9386941697243
 20
16.62638024137727
 30
0.0
 11
38.33869416972429
 21
16.62638024137727
 31
0.0
  0
LINE
  5
420
330
1F
100
AcDbEntity
  8
0
100
AcDbLine
 10
39.83869416972429
 20
17.22638024137728
 30
0.0
 11
39.83869416972429
 21
16.92638024137728
 31
0.0
  0
LINE
  5
421
330
1F
100
AcDbEntity
  8
0
100
AcDbLine
 10
39.83869416972429
 20
16.92638024137728
 30
0.0
 11
39.23869416972429
 21
16.92638024137728
 31
0.0
  0
LINE
  5
423
330
1F
100
AcDbEntity
  8
0
100
AcDbLine
 10
40.43869416972429
 20
16.92638024137728
 30
0.0
 11
39.83869416972429
 21
16.92638024137728
 31
0.0
  0
LINE
  5
424
330
1F
100
AcDbEntity
  8
0
100
AcDbLine
 10
39.53869416972429
 20
16.92638024137728
 30
0.0
 11
39.53869416972429
 21
16.62638024137728
 31
0.0
  0
LINE
  5
425
330
1F
100
AcDbEntity
  8
0
100
AcDbLine
 10
39.53869416972429
 20
16.62638024137728
 30
0.0
 11
38.9386941697243
 21
16.62638024137728
 31
0.0
  0
LINE
  5
426
330
1F
100
AcDbEntity
  8
0
100
AcDbLine
 10
40.13869416972429
 20
16.92638024137729
 30
0.0
 11
40.13869416972429
 21
16.62638024137728
 31
0.0
  0
LINE
  5
427
330
1F
100
AcDbEntity
  8
0
100
AcDbLine
 10
40.13869416972429
 20
16.62638024137729
 30
0.0
 11
39.53869416972429
 21
16.62638024137728
 31
0.0
  0
LINE
  5
429
330
1F
100
AcDbEntity
  8
0
100
AcDbLine
 10
40.7386941697243
 20
16.6263802413773
 30
0.0
 11
40.13869416972429
 21
16.62638024137729
 31
0.0
  0
LINE
  5
42A
330
1F
100
AcDbEntity
  8
0
100
AcDbLine
 10
38.0386941697243
 20
16.62638024137727
 30
0.0
 11
38.0386941697243
 21
16.49434120566305
 31
0.0
  0
LINE
  5
42C
330
1F
100
AcDbEntity
  8
0
100
AcDbLine
 10
38.63869416972429
 20
16.62638024137727
 30
0.0
 11
38.6386941697243
 21
16.35664404493487
 31
0.0
  0
LINE
  5
42D
330
1F
100
AcDbEntity
  8
0
100
AcDbLine
 10
40.43869416972429
 20
16.32638024137727
 30
0.0
 11
39.8386941697243
 21
16.32638024137727
 31
0.0
  0
LINE
  5
42E
330
1F
100
AcDbEntity
  8
0
100
AcDbLine
 10
39.8386941697243
 20
16.32638024137727
 30
0.0
 11
39.2386941697243
 21
16.32638024137727
 31
0.0
  0
LINE
  5
42F
330
1F
100
AcDbEntity
  8
0
100
AcDbLine
 10
39.2386941697243
 20
16.32638024137727
 30
0.0
 11
38.72010246160835
 21
16.32638024137727
 31
0.0
  0
LINE
  5
430
330
1F
100
AcDbEntity
  8
0
100
AcDbLine
 10
39.2386941697243
 20
16.32638024137727
 30
0.0
 11
39.2386941697243
 21
16.62638024137728
 31
0.0
  0
LINE
  5
431
330
1F
100
AcDbEntity
  8
0
100
AcDbLine
 10
39.8386941697243
 20
16.32638024137727
 30
0.0
 11
39.83869416972429
 21
16.62638024137729
 31
0.0
  0
LINE
  5
432
330
1F
100
AcDbEntity
  8
0
100
AcDbLine
 10
40.43869416972429
 20
16.02638024137727
 30
0.0
 11
39.8386941697243
 21
16.02638024137727
 31
0.0
  0
LINE
  5
433
330
1F
100
AcDbEntity
  8
0
100
AcDbLine
 10
40.13869416972429
 20
16.32638024137727
 30
0.0
 11
40.13869416972429
 21
16.02638024137727
 31
0.0
  0
LINE
  5
434
330
1F
100
AcDbEntity
  8
0
100
AcDbLine
 10
39.8386941697243
 20
16.02638024137727
 30
0.0
 11
39.28218197356569
 21
16.02638024137727
 31
0.0
  0
LINE
  5
435
330
1F
100
AcDbEntity
  8
0
100
AcDbLine
 10
39.53869416972429
 20
16.32638024137727
 30
0.0
 11
39.53869416972429
 21
16.02638024137727
 31
0.0
  0
LINE
  5
436
330
1F
100
AcDbEntity
  8
0
100
AcDbLine
 10
40.43869416972429
 20
15.72638024137727
 30
0.0
 11
39.8386941697243
 21
15.72638024137727
 31
0.0
  0
LINE
  5
438
330
1F
100
AcDbEntity
  8
0
100
AcDbLine
 10
39.8386941697243
 20
15.72638024137727
 30
0.0
 11
39.8386941697243
 21
16.02638024137728
 31
0.0
  0
LINE
  5
439
330
1F
100
AcDbEntity
  8
0
100
AcDbLine
 10
39.8386941697243
 20
15.72638024137727
 30
0.0
 11
39.64173041894172
 21
15.72638024137727
 31
0.0
  0
LINE
  5
43A
330
1F
100
AcDbEntity
  8
0
100
AcDbLine
 10
40.1386941697243
 20
15.72638024137727
 30
0.0
 11
40.1386941697243
 21
15.42638024137727
 31
0.0
  0
LINE
  5
43B
330
1F
100
AcDbEntity
  8
0
100
AcDbLine
 10
40.43869416972429
 20
15.42638024137727
 30
0.0
 11
39.90219580620713
 21
15.42638024137727
 31
0.0
  0
LINE
  5
43C
330
1F
100
AcDbEntity
  8
0
100
AcDbLine
 10
40.43869416972429
 20
15.12638024137727
 30
0.0
 11
40.09664491057795
 21
15.12638024137727
 31
0.0
  0
LINE
  5
43D
330
1F
100
AcDbEntity
  8
0
100
AcDbLine
 10
40.43869416972429
 20
14.82638024137727
 30
0.0
 11
40.24051831652612
 21
14.82638024137727
 31
0.0
  0
LINE
  5
43E
330
1F
100
AcDbEntity
  8
0
100
AcDbLine
 10
40.43869416972429
 20
14.52638024137727
 30
0.0
 11
40.34221417670504
 21
14.52638024137727
 31
0.0
  0
LINE
  5
43F
330
1F
100
AcDbEntity
  8
0
100
AcDbLine
 10
40.43869416972428
 20
14.22638024137727
 30
0.0
 11
40.40656013187034
 21
14.22638024137727
 31
0.0
  0
ENDSEC
  0
SECTION
  2
OBJECTS
  0
DICTIONARY
  5
C
330
0
100
AcDbDictionary
281
     1
  3
ACAD_COLOR
350
73
  3
ACAD_GROUP
350
D
  3
ACAD_LAYOUT
350
1A
  3
ACAD_MATERIAL
350
72
  3
ACAD_MLINESTYLE
350
17
  3
ACAD_PLOTSETTINGS
350
19
  3
ACAD_PLOTSTYLENAME
350
E
  3
ACAD_TABLESTYLE
350
86
  3
AcDbVariableDictionary
350
66
  3
ADE_QUERY_LIBRARY
350
F7
  3
AEC_VARS
350
99
  3
ASE_INDEX_DICTIONARY
350
F3
  3
Autodesk_MAP
350
8B
1001
ADE
1000
ADE02C004
1000
[Query]
1000
CaseSensitiveMatch=0
1000
SaveCurrQueryInSession=1
1000
MkSelSetWithQryObj=0
1000
ShowBlockAsInsPt=0
1000
CreateAssociativeHatchObjects=0
1000
ReferenceBoundaryForAreaLocation=1
1000
ShowImageAsBoundary=1
1000
DefaultJoinOperator=2
1000
ColorForAdd=red
1000
ColorForRemove=red
1000
BlockLocnForQuery=1
1000
TextLocnForQuery=1
1000
IncludeAllObjectsInGroups=0
1000
AlwaysUseLibraryDefinitions=0
1000
PreviewDefinitionsFrom=2
1000
[Save Back]
1000
RedefineBlockDefinitions=1
1000
RedefineLayerDefinitions=1
1000
RedefineTextStyleDefinitions=1
1000
RemoveUnusedGroups=1
1000
EraseSavedBackObjects=1
1000
RemoveLockAfterSave=1
1000
CreateHistoryFileOfChanges=0
1000
CreateBackupFileOfSourceDwg=1
1000
DontAddObjectsToSaveSet=0
1000
MarkObjectsForEditingWithoutPrompting=0
1000
FdoDontAddObjsToSvSet=0
1000
FdoEditWithoutPrompt=1
1000
FdoRemUnusedGrps=1
1000
FdoEraseSvdBkObjs=1
1000
FdoRemoveLockOnSave=1
1000
FdoTesselationMaxPointsDistance=0
1000
FdoTesselationMaxCurvesDistance=0
1000
[Coordinate Transformation]
1000
RestoreLastActiveDwgsOnStartup=1
1000
ActivateDwgsOnAttach=1
1000
AdjustSizesAndScalesForChangesInUnits=1
1000
AdjustRotationsForMapDistortions=1
1000
AdjustSizesAndScalesForMapDistortions=1
1000
AdjustElevations=1
1000
AdjustZeroRotationObjects=1
1000
ReconnectDbOnWSOpen=1
1000
NoOfSQLConditionsInHistory=10
1000
ReconnectFeatureSource=1
  0
DICTIONARY
  5
A0
330
1F
100
AcDbDictionary
280
     1
281
     1
  3
ACAD_SORTENTS
360
A1
  0
DICTIONARY
  5
73
102
{ACAD_REACTORS
330
C
102
}
330
C
100
AcDbDictionary
281
     1
  0
DICTIONARY
  5
D
102
{ACAD_REACTORS
330
C
102
}
330
C
100
AcDbDictionary
281
     1
  0
DICTIONARY
  5
1A
102
{ACAD_REACTORS
330
C
102
}
330
C
100
AcDbDictionary
281
     1
  3
Layout1
350
59
  3
Layout2
350
5E
  3
Model
350
22
  0
DICTIONARY
  5
72
102
{ACAD_REACTORS
330
C
102
}
330
C
100
AcDbDictionary
281
     1
  0
DICTIONARY
  5
17
102
{ACAD_REACTORS
330
C
102
}
330
C
100
AcDbDictionary
281
     1
  3
Standard
350
18
  0
DICTIONARY
  5
19
102
{ACAD_REACTORS
330
C
102
}
330
C
100
AcDbDictionary
281
     1
  0
ACDBDICTIONARYWDFLT
  5
E
102
{ACAD_REACTORS
330
C
102
}
330
C
100
AcDbDictionary
281
     1
  3
Normal
350
F
100
AcDbDictionaryWithDefault
340
F
  0
DICTIONARY
  5
86
102
{ACAD_REACTORS
330
C
102
}
330
C
100
AcDbDictionary
281
     1
  3
Legend
350
91
  3
Standard
350
87
  0
DICTIONARY
  5
66
102
{ACAD_REACTORS
330
C
102
}
330
C
100
AcDbDictionary
281
     1
  3
CTABLESTYLE
350
FA
  3
DIMASSOC
350
67
  3
HIDETEXT
350
6B
  0
DICTIONARY
  5
F7
102
{ACAD_REACTORS
330
C
102
}
330
C
100
AcDbDictionary
281
     1
  3
_CurrQry
350
442
  0
DICTIONARY
  5
99
102
{ACAD_REACTORS
330
C
102
}
330
C
100
AcDbDictionary
281
     1
  3
AEC_VARS_DWG_SETUP
350
9A
  0
DICTIONARY
  5
F3
102
{ACAD_REACTORS
330
C
102
}
330
C
100
AcDbDictionary
281
     1
  3
ASEBlockHierarchyIndexRecord
350
F5
1001
DCO15
1040
1591081132.171
  0
DICTIONARY
  5
8B
102
{ACAD_REACTORS
330
C
102
}
330
C
100
AcDbDictionary
281
     1
  3
AcMapDMStylizedEntities
350
98
  3
AdMapDataSourceManager_Dictionary
350
F1
  3
MAP_DISPLAY_CUSTOMOBJ_REG_TABLE
350
8F
  3
MAP_DISPLAY_MANAGEMENT_DICTIONARY
350
8C
  3
MAP_DISPLAY_STYLELIBRARY_DICTIONARY
350
8D
  0
SORTENTSTABLE
  5
A1
102
{ACAD_REACTORS
330
A0
102
}
330
A0
100
AcDbSortentsTable
330
1F
331
208
  5
208
331
1E6
  5
1E6
331
1C4
  5
1C4
331
1A2
  5
1A2
331
188
  5
188
331
29D
  5
29E
331
288
  5
288
331
1F7
  5
1F7
331
1D5
  5
1D5
331
1B3
  5
1B3
331
199
  5
199
331
177
  5
177
331
277
  5
277
331
166
  5
166
331
206
  5
206
331
1E4
  5
1E4
331
1C2
  5
1C2
331
1A0
  5
1A0
331
29B
  5
29C
331
286
  5
286
331
1F5
  5
1F5
331
1B1
  5
1B1
331
197
  5
197
331
175
  5
175
331
275
  5
275
331
186
  5
186
331
164
  5
164
331
131
  5
13B
331
204
  5
204
331
1C0
  5
1C0
331
299
  5
29A
331
284
  5
284
331
1D1
  5
1D1
331
1AF
  5
1AF
331
195
  5
195
331
173
  5
173
331
273
  5
273
331
184
  5
184
331
12F
  5
13A
331
282
  5
282
331
1F1
  5
1F1
331
1CF
  5
1CF
331
1AD
  5
1AD
331
193
  5
193
331
171
  5
171
331
271
  5
271
331
1BE
  5
1BE
331
182
  5
182
331
295
  5
298
331
280
  5
280
331
1EF
  5
1EF
331
1CD
  5
1CD
331
1AB
  5
1AB
331
191
  5
191
331
16F
  5
16F
331
211
  5
211
331
26F
  5
26F
331
1DE
  5
1DE
331
1BC
  5
1BC
331
180
  5
180
331
100
  5
128
331
14D
  5
101
331
293
  5
294
331
129
  5
138
331
27E
  5
27E
331
1ED
  5
1ED
331
1CB
  5
1CB
331
1A9
  5
1A9
331
18F
  5
18F
331
16D
  5
16D
331
20F
  5
20F
331
FE
  5
11E
331
26D
  5
26D
331
28F
  5
28F
331
1FE
  5
1FE
331
1DC
  5
1DC
331
1BA
  5
1BA
331
17E
  5
17E
331
AC
  5
FE
331
14B
  5
10D
331
27C
  5
27C
331
1EB
  5
1EB
331
1C9
  5
1C9
331
1A7
  5
1A7
331
18D
  5
18D
331
16B
  5
16B
331
20D
  5
20D
331
2A2
  5
293
331
11E
  5
135
331
FC
  5
11C
331
149
  5
11B
331
28D
  5
28D
331
1FC
  5
1FC
331
1DA
  5
1DA
331
1B8
  5
1B8
331
19E
  5
19E
331
17C
  5
17C
331
10D
  5
12F
331
AA
  5
AA
331
27A
  5
27A
331
20B
  5
20B
331
1E9
  5
1E9
331
1C7
  5
1C7
331
1A5
  5
1A5
331
18B
  5
18B
331
169
  5
169
331
2A0
  5
2A1
331
11C
  5
133
331
28B
  5
28B
331
1FA
  5
1FA
331
1D8
  5
1D8
331
1B6
  5
1B6
331
19C
  5
19C
331
17A
  5
17A
331
278
  5
278
331
209
  5
209
331
1E7
  5
1E7
331
1C5
  5
1C5
331
1A3
  5
1A3
331
189
  5
189
331
29E
  5
29F
331
289
  5
289
331
1F8
  5
1F8
331
1D6
  5
1D6
331
1B4
  5
1B4
331
19A
  5
19A
331
178
  5
178
331
167
  5
167
331
207
  5
207
331
1E5
  5
1E5
331
1A1
  5
1A1
331
29C
  5
29D
331
287
  5
287
331
1F6
  5
1F6
331
1D4
  5
1D4
331
1B2
  5
1B2
331
198
  5
198
331
176
  5
176
331
276
  5
276
331
187
  5
187
331
165
  5
165
331
29A
  5
29B
331
205
  5
205
331
1C1
  5
1C1
331
285
  5
285
331
1F4
  5
1F4
331
1B0
  5
1B0
331
196
  5
196
331
174
  5
174
331
274
  5
274
331
185
  5
185
331
163
  5
163
331
1E1
  5
1E1
331
298
  5
299
331
283
  5
283
331
1AE
  5
1AE
331
194
  5
194
331
172
  5
172
331
272
  5
272
331
1BF
  5
1BF
331
183
  5
183
331
12E
  5
139
331
201
  5
201
331
281
  5
281
331
1CE
  5
1CE
331
1AC
  5
1AC
331
192
  5
192
331
170
  5
170
331
270
  5
270
331
1DF
  5
1DF
331
1BD
  5
1BD
331
181
  5
181
331
101
  5
129
331
14E
  5
100
331
294
  5
295
331
27F
  5
27F
331
1EE
  5
1EE
331
1CC
  5
1CC
331
1AA
  5
1AA
331
190
  5
190
331
16E
  5
16E
331
26E
  5
26E
331
1FF
  5
1FF
331
1DD
  5
1DD
331
1BB
  5
1BB
331
17F
  5
17F
331
FF
  5
11F
331
14C
  5
10C
331
292
  5
292
331
128
  5
137
331
27D
  5
27D
331
1EC
  5
1EC
331
1CA
  5
1CA
331
1A8
  5
1A8
331
18E
  5
18E
331
16C
  5
16C
331
20E
  5
20E
331
26C
  5
26C
331
11F
  5
136
331
FD
  5
11D
331
14A
  5
10E
331
28E
  5
28E
331
1FD
  5
1FD
331
1DB
  5
1DB
331
1B9
  5
1B9
331
19F
  5
19F
331
10E
  5
131
331
17D
  5
17D
331
27B
  5
27B
331
20C
  5
20C
331
1EA
  5
1EA
331
1C8
  5
1C8
331
1A6
  5
1A6
331
18C
  5
18C
331
16A
  5
16A
331
2A1
  5
2A2
331
11D
  5
134
331
148
  5
FF
331
28C
  5
28C
331
1FB
  5
1FB
331
1D9
  5
1D9
331
1B7
  5
1B7
331
19D
  5
19D
331
10C
  5
12E
331
17B
  5
17B
331
279
  5
279
331
20A
  5
20A
331
1E8
  5
1E8
331
1C6
  5
1C6
331
1A4
  5
1A4
331
18A
  5
18A
331
168
  5
168
331
29F
  5
2A0
331
28A
  5
28A
331
1F9
  5
1F9
331
1D7
  5
1D7
331
1B5
  5
1B5
331
19B
  5
19B
331
179
  5
179
331
11B
  5
132
331
146
  5
AB
  0
LAYOUT
  5
59
102
{ACAD_REACTORS
330
1A
102
}
330
1A
100
AcDbPlotSettings
  1

  2
None
  4

  6

 40
0.0
 41
0.0
 42
0.0
 43
0.0
 44
0.0
 45
0.0
 46
0.0
 47
0.0
 48
0.0
 49
0.0
140
0.0
141
0.0
142
1.0
143
1.0
 70
   688
 72
     0
 73
     0
 74
     5
  7

 75
    16
147
1.0
 76
     0
 77
     2
 78
   300
148
0.0
149
0.0
100
AcDbLayout
  1
Layout1
 70
     1
 71
     1
 10
0.0
 20
0.0
 11
12.0
 21
9.0
 12
0.0
 22
0.0
 32
0.0
 14
0.0
 24
0.0
 34
0.0
 15
0.0
 25
0.0
 35
0.0
146
0.0
 13
0.0
 23
0.0
 33
0.0
 16
1.0
 26
0.0
 36
0.0
 17
0.0
 27
1.0
 37
0.0
 76
     0
330
58
  0
LAYOUT
  5
5E
102
{ACAD_REACTORS
330
1A
102
}
330
1A
100
AcDbPlotSettings
  1

  2
None
  4

  6

 40
0.0
 41
0.0
 42
0.0
 43
0.0
 44
0.0
 45
0.0
 46
0.0
 47
0.0
 48
0.0
 49
0.0
140
0.0
141
0.0
142
1.0
143
1.0
 70
   688
 72
     0
 73
     0
 74
     5
  7

 75
    16
147
1.0
 76
     0
 77
     2
 78
   300
148
0.0
149
0.0
100
AcDbLayout
  1
Layout2
 70
     1
 71
     2
 10
0.0
 20
0.0
 11
12.0
 21
9.0
 12
0.0
 22
0.0
 32
0.0
 14
0.0
 24
0.0
 34
0.0
 15
0.0
 25
0.0
 35
0.0
146
0.0
 13
0.0
 23
0.0
 33
0.0
 16
1.0
 26
0.0
 36
0.0
 17
0.0
 27
1.0
 37
0.0
 76
     0
330
5D
  0
LAYOUT
  5
22
102
{ACAD_REACTORS
330
1A
102
}
330
1A
100
AcDbPlotSettings
  1

  2
none_device
  4
ANSI_A_(8.50_x_11.00_Inches)
  6

 40
6.349999904632568
 41
19.04999923706055
 42
6.350006103515625
 43
19.04998779296875
 44
215.8999938964844
 45
279.3999938964844
 46
0.0
 47
0.0
 48
0.0
 49
0.0
140
0.0
141
0.0
142
1.0
143
2.584895464708373
 70
 11952
 72
     0
 73
     1
 74
     0
  7

 75
     0
147
0.3868628397755418
 76
     0
 77
     2
 78
   300
148
0.0
149
0.0
100
AcDbLayout
  1
Model
 70
     1
 71
     0
 10
0.0
 20
0.0
 11
12.0
 21
9.0
 12
0.0
 22
0.0
 32
0.0
 14
0.0
 24
0.0
 34
0.0
 15
0.0
 25
0.0
 35
0.0
146
0.0
 13
0.0
 23
0.0
 33
0.0
 16
1.0
 26
0.0
 36
0.0
 17
0.0
 27
1.0
 37
0.0
 76
     0
330
1F
  0
MLINESTYLE
  5
18
102
{ACAD_REACTORS
330
17
102
}
330
17
100
AcDbMlineStyle
  2
STANDARD
 70
     0
  3

 62
   256
 51
90.0
 52
90.0
 71
     2
 49
0.5
 62
   256
  6
BYLAYER
 49
-0.5
 62
   256
  6
BYLAYER
  0
ACDBPLACEHOLDER
  5
F
102
{ACAD_REACTORS
330
E
102
}
330
E
  0
TABLESTYLE
  5
91
102
{ACAD_REACTORS
330
86
102
}
330
86
100
AcDbTableStyle
  3

 70
     0
 71
     9
 40
0.06
 41
0.06
280
     0
281
     0
  7
Standard
140
0.4
170
     4
 62
     0
 63
     7
283
     0
274
    -2
284
     0
 64
     0
275
    -2
285
     0
 65
     0
276
    -2
286
     1
 66
     0
277
    -2
287
     1
 67
     0
278
    -2
288
     0
 68
     0
279
    -2
289
     1
 69
     0
  7
Standard
140
0.5
170
     5
 62
     0
 63
     7
283
     0
274
    -2
284
     1
 64
     0
275
    -2
285
     0
 65
     0
276
    -2
286
     1
 66
     0
277
    -2
287
     1
 67
     0
278
    -2
288
     0
 68
     0
279
    -2
289
     1
 69
     0
  7
Standard
140
0.4
170
     4
 62
     0
 63
     7
283
     0
274
    -2
284
     1
 64
     0
275
    -2
285
     0
 65
     0
276
    -2
286
     1
 66
     0
277
    -2
287
     1
 67
     0
278
    -2
288
     0
 68
     0
279
    -2
289
     1
 69
     0
  0
TABLESTYLE
  5
87
102
{ACAD_REACTORS
330
86
102
}
330
86
100
AcDbTableStyle
  3
Standard
 70
     0
 71
     0
 40
0.06
 41
0.06
280
     0
281
     0
  7
Standard
140
0.18
170
     2
 62
     0
 63
     7
283
     0
274
    -2
284
     1
 64
     0
275
    -2
285
     1
 65
     0
276
    -2
286
     1
 66
     0
277
    -2
287
     1
 67
     0
278
    -2
288
     1
 68
     0
279
    -2
289
     1
 69
     0
  7
Standard
140
0.25
170
     5
 62
     0
 63
     7
283
     0
274
    -2
284
     1
 64
     0
275
    -2
285
     1
 65
     0
276
    -2
286
     1
 66
     0
277
    -2
287
     1
 67
     0
278
    -2
288
     1
 68
     0
279
    -2
289
     1
 69
     0
  7
Standard
140
0.18
170
     5
 62
     0
 63
     7
283
     0
274
    -2
284
     1
 64
     0
275
    -2
285
     1
 65
     0
276
    -2
286
     1
 66
     0
277
    -2
287
     1
 67
     0
278
    -2
288
     1
 68
     0
279
    -2
289
     1
 69
     0
  0
DICTIONARYVAR
  5
FA
102
{ACAD_REACTORS
330
66
102
}
330
66
100
DictionaryVariables
280
     0
  1
STANDARD
  0
DICTIONARYVAR
  5
67
102
{ACAD_REACTORS
330
66
102
}
330
66
100
DictionaryVariables
280
     0
  1
2
  0
DICTIONARYVAR
  5
6B
102
{ACAD_REACTORS
330
66
102
}
330
66
100
DictionaryVariables
280
     0
  1
1
  0
XRECORD
  5
442
102
{ACAD_REACTORS
330
F7
102
}
330
F7
100
AcDbXrecord
280
     1
1000
ADE02C001
1070
     1
1070
     0
1002
{
1002
}
1002
{
1002
}
1002
{
1002
}
1000

  0
XRECORD
  5
F5
102
{ACAD_REACTORS
330
F3
102
}
330
F3
100
AcDbXrecord
280
     1
  0
DMSTYLIZEDENTITIESTABLE
  5
98
102
{ACAD_REACTORS
330
8B
102
}
330
8B
100
AcMapDMStylizedEntitiesTable
 70
     1
  0
DICTIONARY
  5
F1
102
{ACAD_REACTORS
330
8B
102
}
330
8B
100
AcDbDictionary
281
     1
  0
DATATABLE
  5
8F
102
{ACAD_REACTORS
330
8B
102
}
330
8B
100
AcDbDataTable
 70
     2
 90
        4
 91
       16
  1

 92
        3
  2
OriginalClassName
  3
AcMapDMDefaultStyle
  3
AcMapDMEntityStyle
  3
AcMapDMRasterStyle
  3
AcMapDMSEAnnotationStyle
  3
AcMapDMSEHatchStyle
  3
AcMapDMSETextStyle
  3
AcMapDMThematicStyle
  3
AcMapDMBaseElement
  3
AcMapDMAttachedDwgsQueryElement
  3
AcMapDMFdoQueryElement
  3
AcMapDMFeatureElement
  3
AcMapDMLayerElement
  3
AcMapDMCurrentDwgQueryElement
  3
AcMapDMRasterElement
  3
AcMapDMTopoElement
  3
AcMapDMTopoQueryElement
 92
        3
  2
ProxyDisplayName
  3
Default
  3
Entity
  3
Raster
  3
Annotation
  3
Hatch
  3
Text
  3
Thematic
  3
Map Base
  3
Ade Query
  3
FDO Query
  3
Feature Class
  3
Layer
  3
Ade Project Query
  3
Raster
  3
Topology
  3
Topology Query
 92
        1
  2
CustomObjectType
 93
        2
 93
        2
 93
        2
 93
        2
 93
        2
 93
        2
 93
        2
 93
        1
 93
        1
 93
        1
 93
        1
 93
        1
 93
        1
 93
        1
 93
        1
 93
        1
 92
        1
  2
StyleCoExistanceType
 93
        1
 93
        1
 93
        1
 93
        1
 93
        1
 93
        1
 93
        2
 93
        0
 93
        0
 93
        0
 93
        0
 93
        0
 93
        0
 93
        0
 93
        0
 93
        0
  0
DMMAPMANAGER
  5
8C
102
{ACAD_REACTORS
330
8B
102
}
330
8B
100
AcDbDictionary
281
     1
  3
DisplayMap1
350
90
100
AcDbDictionaryWithDefault
340
90
100
AcMapDMMapManager
 70
     1
340
90
  0
DMSTYLELIBRARY
  5
8D
102
{ACAD_REACTORS
330
8B
102
}
330
8B
100
AcMapDMStyleLibrary
 70
     1
 70
     1
360
8E
  0
DMMAP
  5
90
102
{ACAD_REACTORS
330
8C
330
92
102
}
330
8C
100
AcMapDMMap
 70
     1
  1
Default
 70
     1
330
0
100
AcMapDMMap
 70
     1
 90
        1
360
92
 90
        1
 40
1.797693134862314E+99
 70
     1
100
AcMapDMMap
 70
     2
 70
     0
 40
1.797693134862314E+99
290
     1
290
     1
 40
1.0
 40
3.0
  1
Legend
 90
        1
 40
1.797693134862314E+99
  1

 70
     0
 40
1.0
 70
     1
 90
        0
 90
        1
360
93
  0
DMSTYLECATEGORY
  5
8E
102
{ACAD_REACTORS
330
8D
102
}
330
0
100
AcMapDMStyleCategory
 70
     1
  1
Display Styles
 70
     0
  0
DMBASEELEMENT
  5
92
102
{ACAD_XDICTIONARY
360
96
102
}
102
{ACAD_REACTORS
330
90
102
}
330
90
100
AcMapDMBaseElement
 70
     1
  1
Map Base
 70
     1
330
90
100
AcMapDMBaseElement
 70
     1
  1

 70
     2
  1

 70
     1
 40
1.797693134862314E+99
 70
     1
 70
     1
 70
     1
 70
     1
360
95
100
AcMapDMBaseElement
 70
     1
  0
DMDEFAULTSTYLE
  5
93
102
{ACAD_REACTORS
330
90
102
}
330
90
100
AcMapDMDefaultStyle
 70
     1
 90
        1
  1
Default
100
AcMapDMDefaultStyle
 70
     1
280
   100
 90
     0
1001
AcMapDMDisplayStyleRegapp
1070
     2
1071
        1
1000
Default
1000

  0
DICTIONARY
  5
96
330
92
100
AcDbDictionary
280
     1
281
     1
  3
AcMapDMSurrogateStyleSets
360
97
  0
DMSTYLEREFERENCE
  5
95
330
92
100
AcMapDMStyleReference
 70
     1
 70
     0
340
93
330
90
  0
DMSURROGATESTYLESETS
  5
97
102
{ACAD_REACTORS
330
96
102
}
330
96
100
AcMapDMSurrogateStyleSets
 70
     1
  1
Map Base
 70
     1
 40
1.797693134862314E+99
 70
     1
 70
     1
 70
     1
 70
     1
330
95
 70
     0
  0
ENDSEC
  0
EOF
